<svg width="593" height="544" viewBox="0 0 593 544" fill="none" xmlns="http://www.w3.org/2000/svg">
<path d="M12.848 77.4505L12.8519 77.4539C21.172 84.8387 32.6919 88.5 47.3461 88.5H99.784H100.284V88V38.92V38.42H99.784H46.271H45.771V38.92V71.753C37.6715 71.2839 31.5705 68.9218 27.3959 64.729C23.1442 60.3791 20.9701 53.6506 20.9701 44.44C20.9701 34.7549 23.4197 27.8421 28.2071 23.5746C33.0935 19.2899 40.6744 17.1 51.049 17.1H95.1255H95.6255V16.6V1V0.5H95.1255H49.735C33.8176 0.5 21.5773 4.19602 13.0925 11.6645C4.67263 19.0659 0.5 30.0219 0.5 44.44C0.5 58.9344 4.59069 69.9683 12.848 77.4505ZM148.105 87.4V87.9H148.605H167.836H168.336V87.4V56.8584L213.255 1.91648L213.923 1.1H212.868H189.217H188.977L188.827 1.28794L158.16 39.6798L127.375 1.28721L127.225 1.1H126.985H103.334H102.277L102.947 1.91707L148.105 56.9788V87.4ZM220.729 87.4V87.9H221.229H240.34H240.84V87.4V26.5366L267.075 44.1069V87.4V87.9H267.575H286.687H287.187V87.4V44.1063L313.301 26.5389V87.4V87.9H313.801H332.913H333.413V87.4V1.6V1.1H332.913H316.907H316.749L316.619 1.19118L277.211 28.94H276.931L237.523 1.19118L237.393 1.1H237.235H221.229H220.729V1.6V87.4ZM349.159 87.4V87.9H349.659H368.771H369.271V87.4V57.06H431.601H432.101V56.56V40.96V40.46H431.601H369.271V17.7H440.918H441.418V17.2V1.6V1.1H440.918H349.659H349.159V1.6V87.4ZM453.56 87.4V87.9H454.06H473.172H473.672V87.4V1.6V1.1H473.172H454.06H453.56V1.6V87.4ZM486.385 45.04V45.54H486.885H506.236H506.736V45.04V17.7H526.998V87.4V87.9H527.498H546.609H547.109V87.4V17.7H572.149V45.04V45.54H572.649H592H592.5V45.04V1.6V1.1H592H486.885H486.385V1.6V45.04ZM80.1722 55.02V71.9H64.6883V55.02H80.1722Z" stroke="white"/>
<path d="M12.848 168.451L12.8519 168.454C21.172 175.839 32.6919 179.5 47.3461 179.5H99.784H100.284V179V129.92V129.42H99.784H46.271H45.771V129.92V162.753C37.6715 162.284 31.5705 159.922 27.3959 155.729C23.1442 151.379 20.9701 144.651 20.9701 135.44C20.9701 125.755 23.4197 118.842 28.2071 114.575C33.0935 110.29 40.6744 108.1 51.049 108.1H95.1255H95.6255V107.6V92V91.5H95.1255H49.735C33.8176 91.5 21.5773 95.196 13.0925 102.664C4.67263 110.066 0.5 121.022 0.5 135.44C0.5 149.934 4.59069 160.968 12.848 168.451ZM148.105 178.4V178.9H148.605H167.836H168.336V178.4V147.858L213.255 92.9165L213.923 92.1H212.868H189.217H188.977L188.827 92.2879L158.16 130.68L127.375 92.2872L127.225 92.1H126.985H103.334H102.277L102.947 92.9171L148.105 147.979V178.4ZM220.729 178.4V178.9H221.229H240.34H240.84V178.4V117.537L267.075 135.107V178.4V178.9H267.575H286.687H287.187V178.4V135.106L313.301 117.539V178.4V178.9H313.801H332.913H333.413V178.4V92.6V92.1H332.913H316.907H316.749L316.619 92.1912L277.211 119.94H276.931L237.523 92.1912L237.393 92.1H237.235H221.229H220.729V92.6V178.4ZM349.159 178.4V178.9H349.659H368.771H369.271V178.4V148.06H431.601H432.101V147.56V131.96V131.46H431.601H369.271V108.7H440.918H441.418V108.2V92.6V92.1H440.918H349.659H349.159V92.6V178.4ZM453.56 178.4V178.9H454.06H473.172H473.672V178.4V92.6V92.1H473.172H454.06H453.56V92.6V178.4ZM486.385 136.04V136.54H486.885H506.236H506.736V136.04V108.7H526.998V178.4V178.9H527.498H546.609H547.109V178.4V108.7H572.149V136.04V136.54H572.649H592H592.5V136.04V92.6V92.1H592H486.885H486.385V92.6V136.04ZM80.1722 146.02V162.9H64.6883V146.02H80.1722Z" stroke="white"/>
<path d="M47.3461 270C32.7733 270 21.3859 266.36 13.1838 259.08C5.06125 251.72 1 240.84 1 226.44C1 212.12 5.14089 201.32 13.4227 194.04C21.7841 186.68 33.8882 183 49.735 183H95.1255V198.6H51.049C40.6171 198.6 32.8928 200.8 27.8759 205.2C22.9387 209.6 20.4701 216.68 20.4701 226.44C20.4701 235.72 22.66 242.6 27.0398 247.08C31.4196 251.48 37.83 253.88 46.271 254.28V220.92H99.784V270H47.3461ZM64.1883 254.4H80.6722V236.52H64.1883V254.4Z" fill="white"/>
<path d="M148.605 269.4V238.8L103.334 183.6H126.985L158.161 222.48L189.217 183.6H212.868L167.836 238.68V269.4H148.605Z" fill="white"/>
<path d="M221.229 269.4V183.6H237.235L276.772 211.44H277.37L316.907 183.6H332.913V269.4H313.801V207.6L286.687 225.84V269.4H267.575V225.84L240.34 207.6V269.4H221.229Z" fill="white"/>
<path d="M349.659 269.4V183.6H440.918V199.2H368.771V222.96H431.601V238.56H368.771V269.4H349.659Z" fill="white"/>
<path d="M454.06 269.4V183.6H473.172V269.4H454.06Z" fill="white"/>
<path d="M486.885 227.04V183.6H592V227.04H572.649V199.2H546.609V269.4H527.498V199.2H506.236V227.04H486.885Z" fill="white"/>
<path d="M12.848 350.451L12.8519 350.454C21.172 357.839 32.6919 361.5 47.3461 361.5H99.784H100.284V361V311.92V311.42H99.784H46.271H45.771V311.92V344.753C37.6715 344.284 31.5705 341.922 27.3959 337.729C23.1442 333.379 20.9701 326.651 20.9701 317.44C20.9701 307.755 23.4197 300.842 28.2071 296.575C33.0935 292.29 40.6744 290.1 51.049 290.1H95.1255H95.6255V289.6V274V273.5H95.1255H49.735C33.8176 273.5 21.5773 277.196 13.0925 284.664C4.67263 292.066 0.5 303.022 0.5 317.44C0.5 331.934 4.59069 342.968 12.848 350.451ZM148.105 360.4V360.9H148.605H167.836H168.336V360.4V329.858L213.255 274.916L213.923 274.1H212.868H189.217H188.977L188.827 274.288L158.16 312.68L127.375 274.287L127.225 274.1H126.985H103.334H102.277L102.947 274.917L148.105 329.979V360.4ZM220.729 360.4V360.9H221.229H240.34H240.84V360.4V299.537L267.075 317.107V360.4V360.9H267.575H286.687H287.187V360.4V317.106L313.301 299.539V360.4V360.9H313.801H332.913H333.413V360.4V274.6V274.1H332.913H316.907H316.749L316.619 274.191L277.211 301.94H276.931L237.523 274.191L237.393 274.1H237.235H221.229H220.729V274.6V360.4ZM349.159 360.4V360.9H349.659H368.771H369.271V360.4V330.06H431.601H432.101V329.56V313.96V313.46H431.601H369.271V290.7H440.918H441.418V290.2V274.6V274.1H440.918H349.659H349.159V274.6V360.4ZM453.56 360.4V360.9H454.06H473.172H473.672V360.4V274.6V274.1H473.172H454.06H453.56V274.6V360.4ZM486.385 318.04V318.54H486.885H506.236H506.736V318.04V290.7H526.998V360.4V360.9H527.498H546.609H547.109V360.4V290.7H572.149V318.04V318.54H572.649H592H592.5V318.04V274.6V274.1H592H486.885H486.385V274.6V318.04ZM80.1722 328.02V344.9H64.6883V328.02H80.1722Z" stroke="white"/>
<path d="M12.848 441.451L12.8519 441.454C21.172 448.839 32.6919 452.5 47.3461 452.5H99.784H100.284V452V402.92V402.42H99.784H46.271H45.771V402.92V435.753C37.6715 435.284 31.5705 432.922 27.3959 428.729C23.1442 424.379 20.9701 417.651 20.9701 408.44C20.9701 398.755 23.4197 391.842 28.2071 387.575C33.0935 383.29 40.6744 381.1 51.049 381.1H95.1255H95.6255V380.6V365V364.5H95.1255H49.735C33.8176 364.5 21.5773 368.196 13.0925 375.664C4.67263 383.066 0.5 394.022 0.5 408.44C0.5 422.934 4.59069 433.968 12.848 441.451ZM148.105 451.4V451.9H148.605H167.836H168.336V451.4V420.858L213.255 365.916L213.923 365.1H212.868H189.217H188.977L188.827 365.288L158.16 403.68L127.375 365.287L127.225 365.1H126.985H103.334H102.277L102.947 365.917L148.105 420.979V451.4ZM220.729 451.4V451.9H221.229H240.34H240.84V451.4V390.537L267.075 408.107V451.4V451.9H267.575H286.687H287.187V451.4V408.106L313.301 390.539V451.4V451.9H313.801H332.913H333.413V451.4V365.6V365.1H332.913H316.907H316.749L316.619 365.191L277.211 392.94H276.931L237.523 365.191L237.393 365.1H237.235H221.229H220.729V365.6V451.4ZM349.159 451.4V451.9H349.659H368.771H369.271V451.4V421.06H431.601H432.101V420.56V404.96V404.46H431.601H369.271V381.7H440.918H441.418V381.2V365.6V365.1H440.918H349.659H349.159V365.6V451.4ZM453.56 451.4V451.9H454.06H473.172H473.672V451.4V365.6V365.1H473.172H454.06H453.56V365.6V451.4ZM486.385 409.04V409.54H486.885H506.236H506.736V409.04V381.7H526.998V451.4V451.9H527.498H546.609H547.109V451.4V381.7H572.149V409.04V409.54H572.649H592H592.5V409.04V365.6V365.1H592H486.885H486.385V365.6V409.04ZM80.1722 419.02V435.9H64.6883V419.02H80.1722Z" stroke="white"/>
<path d="M12.848 532.451L12.8519 532.454C21.172 539.839 32.6919 543.5 47.3461 543.5H99.784H100.284V543V493.92V493.42H99.784H46.271H45.771V493.92V526.753C37.6715 526.284 31.5705 523.922 27.3959 519.729C23.1442 515.379 20.9701 508.651 20.9701 499.44C20.9701 489.755 23.4197 482.842 28.2071 478.575C33.0935 474.29 40.6744 472.1 51.049 472.1H95.1255H95.6255V471.6V456V455.5H95.1255H49.735C33.8176 455.5 21.5773 459.196 13.0925 466.664C4.67263 474.066 0.5 485.022 0.5 499.44C0.5 513.934 4.59069 524.968 12.848 532.451ZM148.105 542.4V542.9H148.605H167.836H168.336V542.4V511.858L213.255 456.916L213.923 456.1H212.868H189.217H188.977L188.827 456.288L158.16 494.68L127.375 456.287L127.225 456.1H126.985H103.334H102.277L102.947 456.917L148.105 511.979V542.4ZM220.729 542.4V542.9H221.229H240.34H240.84V542.4V481.537L267.075 499.107V542.4V542.9H267.575H286.687H287.187V542.4V499.106L313.301 481.539V542.4V542.9H313.801H332.913H333.413V542.4V456.6V456.1H332.913H316.907H316.749L316.619 456.191L277.211 483.94H276.931L237.523 456.191L237.393 456.1H237.235H221.229H220.729V456.6V542.4ZM349.159 542.4V542.9H349.659H368.771H369.271V542.4V512.06H431.601H432.101V511.56V495.96V495.46H431.601H369.271V472.7H440.918H441.418V472.2V456.6V456.1H440.918H349.659H349.159V456.6V542.4ZM453.56 542.4V542.9H454.06H473.172H473.672V542.4V456.6V456.1H473.172H454.06H453.56V456.6V542.4ZM486.385 500.04V500.54H486.885H506.236H506.736V500.04V472.7H526.998V542.4V542.9H527.498H546.609H547.109V542.4V472.7H572.149V500.04V500.54H572.649H592H592.5V500.04V456.6V456.1H592H486.885H486.385V456.6V500.04ZM80.1722 510.02V526.9H64.6883V510.02H80.1722Z" stroke="white"/>
</svg>
