<svg width="204" height="60" viewBox="0 0 204 60" fill="none" xmlns="http://www.w3.org/2000/svg">
<path d="M196.444 0H7.55556C3.38274 0 0 3.35786 0 7.5V52.5C0 56.6421 3.38274 60 7.55556 60H196.444C200.617 60 204 56.6421 204 52.5V7.5C204 3.35786 200.617 0 196.444 0Z" fill="black"/>
<path d="M196.444 1.2C198.128 1.2 199.742 1.86375 200.932 3.04523C202.122 4.22671 202.791 5.82914 202.791 7.5V52.5C202.791 54.1709 202.122 55.7733 200.932 56.9548C199.742 58.1363 198.128 58.8 196.444 58.8H7.55556C5.87231 58.8 4.25802 58.1363 3.06778 56.9548C1.87755 55.7733 1.20889 54.1709 1.20889 52.5V7.5C1.20889 5.82914 1.87755 4.22671 3.06778 3.04523C4.25802 1.86375 5.87231 1.2 7.55556 1.2H196.444ZM196.444 0H7.55556C5.5517 0 3.62991 0.790176 2.21297 2.1967C0.796029 3.60322 0 5.51088 0 7.5V52.5C0 54.4891 0.796029 56.3968 2.21297 57.8033C3.62991 59.2098 5.5517 60 7.55556 60H196.444C198.448 60 200.37 59.2098 201.787 57.8033C203.204 56.3968 204 54.4891 204 52.5V7.5C204 5.51088 203.204 3.60322 201.787 2.1967C200.37 0.790176 198.448 0 196.444 0Z" fill="#A6A6A6"/>
<path d="M39.3502 32.4111H20.7116C19.4042 32.4111 18.347 33.4605 18.347 34.7583C18.347 36.0562 19.4042 37.1055 20.7116 37.1055H42.1877C42.1877 37.1055 43.3004 36.001 42.1042 34.2061C40.8802 32.4111 39.3502 32.4111 39.3502 32.4111Z" fill="white"/>
<path d="M38.4043 12.6671L26.8317 32.5493C26.1919 33.6814 26.5535 35.1174 27.6941 35.7525C28.8347 36.3876 30.2812 36.0286 30.9211 34.8965L42.4936 15.0143C43.1335 13.8821 42.7718 12.4462 41.6313 11.811C40.4907 11.1483 39.0441 11.5349 38.4043 12.6671Z" fill="white"/>
<path d="M52.564 41.082L40.6855 20.6199C40.6855 20.6199 38.9607 21.9454 38.9607 24.5687C38.9607 27.192 40.0456 28.9593 40.0456 28.9593L48.4747 43.4568C49.1145 44.589 50.5611 44.9755 51.7017 44.3128C52.8144 43.6501 53.2039 42.2141 52.564 41.082Z" fill="white"/>
<path d="M53.7602 32.4111H47.1672C45.8597 32.4111 44.8026 33.4605 44.8026 34.7583C44.8026 36.0562 45.8597 37.1055 47.1672 37.1055H53.7602C55.0677 37.1055 56.1248 36.0562 56.1248 34.7583C56.1248 33.4881 55.0677 32.4111 53.7602 32.4111Z" fill="white"/>
<path d="M38.5434 16.9749L36.0397 12.6395C35.3999 11.5349 33.9255 11.1483 32.8128 11.7835C31.7 12.4186 31.3106 13.8821 31.9504 14.9867L34.4541 19.3221C35.0939 20.4267 36.5683 20.8133 37.681 20.1782C38.7938 19.543 39.1833 18.1071 38.5434 16.9749Z" fill="white"/>
<path d="M21.8802 41.0544L23.3824 38.4863C23.3824 38.4863 23.744 37.7683 25.1628 37.7683C26.665 37.7683 28.1116 39.0109 28.2228 39.4804L25.9695 43.4016C25.3297 44.5338 23.8831 44.9204 22.7426 44.2576C21.602 43.6225 21.2403 42.1866 21.8802 41.0544Z" fill="white"/>
<path d="M82.3855 45.7196H79.1157L77.3246 40.1328H71.0989L69.3927 45.7196H66.2094L72.3774 26.6997H76.1871L82.3855 45.7196ZM76.7847 37.7889L75.1649 32.8224C74.9935 32.3151 74.6725 31.1203 74.1988 29.2394H74.1412C73.9526 30.0483 73.6488 31.2432 73.2312 32.8224L71.6403 37.7889H76.7847Z" fill="white"/>
<path d="M98.2473 38.6936C98.2473 41.0261 97.6123 42.8698 96.3424 44.2233C95.205 45.4281 93.7926 46.0298 92.1066 46.0298C90.2867 46.0298 88.9793 45.3809 88.1831 44.0832H88.1255V51.3078H85.0559V36.5198C85.0559 35.0534 85.017 33.5485 84.9421 32.0049H87.6418L87.8131 34.1788H87.8707C88.8944 32.5409 90.4479 31.7234 92.5327 31.7234C94.1626 31.7234 95.5232 32.3622 96.6117 33.6414C97.703 34.922 98.2473 36.6056 98.2473 38.6936ZM95.1201 38.8051C95.1201 37.4702 94.8177 36.3697 94.2101 35.5036C93.5464 34.6004 92.6551 34.1488 91.5378 34.1488C90.7805 34.1488 90.0923 34.4003 89.4775 34.8962C88.8613 35.3965 88.4581 36.0496 88.2695 36.8585C88.1745 37.2358 88.127 37.5446 88.127 37.7875V40.0743C88.127 41.0718 88.4351 41.9136 89.0513 42.6011C89.6675 43.2885 90.4681 43.6316 91.4529 43.6316C92.6091 43.6316 93.5089 43.1885 94.1525 42.3053C94.7975 41.4206 95.1201 40.2543 95.1201 38.8051Z" fill="white"/>
<path d="M114.139 38.6936C114.139 41.0261 113.504 42.8698 112.232 44.2233C111.096 45.4281 109.684 46.0298 107.998 46.0298C106.178 46.0298 104.871 45.3809 104.076 44.0832H104.018V51.3078H100.949V36.5198C100.949 35.0534 100.91 33.5485 100.835 32.0049H103.535L103.706 34.1788H103.764C104.786 32.5409 106.339 31.7234 108.426 31.7234C110.054 31.7234 111.415 32.3622 112.506 33.6414C113.593 34.922 114.139 36.6056 114.139 38.6936ZM111.011 38.8051C111.011 37.4702 110.708 36.3697 110.1 35.5036C109.436 34.6004 108.548 34.1488 107.429 34.1488C106.67 34.1488 105.984 34.4003 105.367 34.8962C104.751 35.3965 104.35 36.0496 104.161 36.8585C104.067 37.2358 104.018 37.5446 104.018 37.7875V40.0743C104.018 41.0718 104.326 41.9136 104.94 42.6011C105.556 43.2871 106.357 43.6316 107.344 43.6316C108.5 43.6316 109.4 43.1885 110.044 42.3053C110.689 41.4206 111.011 40.2543 111.011 38.8051Z" fill="white"/>
<path d="M131.906 40.3859C131.906 42.0038 131.34 43.3201 130.204 44.3363C128.956 45.4468 127.218 46.0013 124.985 46.0013C122.923 46.0013 121.27 45.6068 120.019 44.8165L120.73 42.2768C122.078 43.0857 123.557 43.4916 125.168 43.4916C126.324 43.4916 127.224 43.2315 127.87 42.7141C128.514 42.1968 128.835 41.5022 128.835 40.6361C128.835 39.8643 128.57 39.214 128.039 38.6866C127.51 38.1592 126.628 37.669 125.395 37.216C122.04 35.974 120.364 34.1546 120.364 31.7621C120.364 30.1985 120.952 28.9165 122.128 27.919C123.3 26.9199 124.864 26.4211 126.819 26.4211C128.563 26.4211 130.011 26.7227 131.167 27.3244L130.4 29.8084C129.32 29.2253 128.099 28.9337 126.733 28.9337C125.653 28.9337 124.809 29.1981 124.204 29.724C123.693 30.1943 123.437 30.7674 123.437 31.4462C123.437 32.198 123.729 32.8197 124.317 33.3085C124.828 33.7601 125.757 34.2489 127.104 34.7763C128.753 35.4352 129.964 36.2055 130.743 37.0888C131.519 37.9692 131.906 39.0711 131.906 40.3859Z" fill="white"/>
<path d="M142.055 34.2919H138.671V40.9505C138.671 42.6442 139.267 43.4903 140.462 43.4903C141.011 43.4903 141.466 43.4431 141.826 43.3488L141.911 45.6627C141.306 45.887 140.51 45.9999 139.524 45.9999C138.311 45.9999 137.364 45.6326 136.68 44.8995C135.999 44.1648 135.656 42.9329 135.656 41.2021V34.289H133.641V32.0023H135.656V29.4912L138.671 28.5879V32.0023H142.055V34.2919Z" fill="white"/>
<path d="M157.321 38.7497C157.321 40.8577 156.713 42.5885 155.501 43.942C154.23 45.3355 152.542 46.0301 150.439 46.0301C148.412 46.0301 146.798 45.3626 145.594 44.0277C144.39 42.6929 143.788 41.0078 143.788 38.9769C143.788 36.8517 144.407 35.1109 145.65 33.7574C146.89 32.4025 148.563 31.7251 150.666 31.7251C152.693 31.7251 154.325 32.3925 155.556 33.7288C156.734 35.0251 157.321 36.6987 157.321 38.7497ZM154.136 38.8483C154.136 37.5834 153.864 36.4987 153.313 35.594C152.669 34.4992 151.749 33.9532 150.557 33.9532C149.323 33.9532 148.386 34.5006 147.742 35.594C147.191 36.5001 146.918 37.602 146.918 38.9054C146.918 40.1703 147.191 41.2551 147.742 42.1583C148.406 43.2531 149.333 43.7991 150.529 43.7991C151.701 43.7991 152.621 43.2417 153.285 42.1297C153.851 41.2079 154.136 40.1117 154.136 38.8483Z" fill="white"/>
<path d="M167.299 34.6847C166.995 34.629 166.671 34.6004 166.331 34.6004C165.251 34.6004 164.416 35.0049 163.829 35.8152C163.317 36.5298 163.061 37.4331 163.061 38.5236V45.7196H159.993L160.022 36.324C160.022 34.7433 159.983 33.3041 159.907 32.0064H162.58L162.693 34.6304H162.778C163.102 33.7286 163.613 33.0025 164.312 32.458C164.996 31.9678 165.735 31.7234 166.531 31.7234C166.815 31.7234 167.071 31.7434 167.299 31.7791V34.6847Z" fill="white"/>
<path d="M181.027 38.2135C181.027 38.7595 180.991 39.2197 180.915 39.5956H171.706C171.742 40.9505 172.187 41.9866 173.042 42.7012C173.818 43.3401 174.822 43.6602 176.054 43.6602C177.418 43.6602 178.662 43.4444 179.78 43.0114L180.261 45.1266C178.954 45.6926 177.41 45.9741 175.629 45.9741C173.487 45.9741 171.805 45.3481 170.581 44.0976C169.36 42.847 168.749 41.1677 168.749 39.061C168.749 36.993 169.317 35.2708 170.456 33.8973C171.648 32.4309 173.259 31.6978 175.287 31.6978C177.278 31.6978 178.785 32.4309 179.809 33.8973C180.62 35.0621 181.027 36.5028 181.027 38.2135ZM178.1 37.4232C178.12 36.5199 177.92 35.7396 177.504 35.0807C176.973 34.2332 176.156 33.8101 175.058 33.8101C174.054 33.8101 173.238 34.2232 172.614 35.0521C172.103 35.711 171.799 36.5013 171.706 37.4217H178.1V37.4232Z" fill="white"/>
<path d="M75.7701 14.9991C75.7701 16.6813 75.2618 17.9476 74.2468 18.7979C73.3066 19.5826 71.9704 19.9756 70.2398 19.9756C69.3817 19.9756 68.6474 19.9385 68.0326 19.8641V10.6729C68.8346 10.5443 69.6984 10.4785 70.6314 10.4785C72.28 10.4785 73.5225 10.8344 74.3605 11.5461C75.2992 12.3508 75.7701 13.5013 75.7701 14.9991ZM74.1791 15.0406C74.1791 13.9501 73.8882 13.114 73.3066 12.5309C72.7249 11.9492 71.8754 11.6576 70.7567 11.6576C70.2816 11.6576 69.877 11.6891 69.5415 11.7548V18.7422C69.7272 18.7708 70.067 18.7837 70.5609 18.7837C71.7156 18.7837 72.6068 18.4649 73.2346 17.8275C73.8623 17.1901 74.1791 16.2611 74.1791 15.0406Z" fill="white"/>
<path d="M84.2059 16.4682C84.2059 17.5044 83.9078 18.3533 83.3118 19.0193C82.6869 19.7039 81.859 20.0455 80.8252 20.0455C79.8289 20.0455 79.0356 19.7182 78.4438 19.0608C77.8535 18.4048 77.5583 17.5772 77.5583 16.5797C77.5583 15.5363 77.8621 14.6802 78.4726 14.0157C79.0831 13.3511 79.9038 13.0181 80.9376 13.0181C81.9339 13.0181 82.7344 13.3454 83.3406 14.0014C83.9165 14.6388 84.2059 15.462 84.2059 16.4682ZM82.6408 16.5168C82.6408 15.8951 82.5055 15.362 82.2362 14.9175C81.9195 14.3801 81.4688 14.1114 80.8828 14.1114C80.2767 14.1114 79.8159 14.3801 79.4992 14.9175C79.2285 15.362 79.0946 15.9036 79.0946 16.5439C79.0946 17.1656 79.23 17.6987 79.4992 18.1432C79.826 18.6806 80.281 18.9493 80.8684 18.9493C81.4444 18.9493 81.8965 18.6763 82.2218 18.1289C82.5012 17.6759 82.6408 17.1385 82.6408 16.5168Z" fill="white"/>
<path d="M95.5169 13.1553L93.3932 19.8926H92.011L91.1313 16.967C90.9081 16.2366 90.7267 15.5106 90.5856 14.7903H90.5583C90.4272 15.5306 90.2458 16.2552 90.0126 16.967L89.0781 19.8926H87.6801L85.6831 13.1553H87.2338L88.0012 16.3581C88.1869 17.1156 88.3395 17.8374 88.4619 18.5205H88.4893C88.6016 17.9574 88.7873 17.24 89.0493 16.3724L90.0126 13.1567H91.2422L92.1651 16.3038C92.3882 17.0713 92.5696 17.8102 92.7093 18.522H92.7511C92.8533 17.8288 93.0074 17.0899 93.2118 16.3038L94.0354 13.1567H95.5169V13.1553Z" fill="white"/>
<path d="M103.339 19.8925H101.83V16.0336C101.83 14.8445 101.375 14.2499 100.462 14.2499C100.015 14.2499 99.6533 14.4129 99.3725 14.7402C99.0946 15.0674 98.9535 15.4533 98.9535 15.895V19.891H97.4446V15.0803C97.4446 14.4886 97.4259 13.8469 97.3899 13.1523H98.7159L98.7865 14.2056H98.8282C99.0039 13.8783 99.2659 13.6082 99.6101 13.3924C100.019 13.1409 100.477 13.0137 100.978 13.0137C101.611 13.0137 102.138 13.2166 102.557 13.6239C103.079 14.1227 103.339 14.8674 103.339 15.8564V19.8925Z" fill="white"/>
<path d="M107.5 19.8926H105.993V10.064H107.5V19.8926Z" fill="white"/>
<path d="M116.384 16.4682C116.384 17.5044 116.086 18.3533 115.49 19.0193C114.865 19.7039 114.036 20.0455 113.003 20.0455C112.005 20.0455 111.212 19.7182 110.622 19.0608C110.031 18.4048 109.736 17.5772 109.736 16.5797C109.736 15.5363 110.04 14.6802 110.651 14.0157C111.261 13.3511 112.082 13.0181 113.114 13.0181C114.112 13.0181 114.911 13.3454 115.519 14.0014C116.094 14.6388 116.384 15.462 116.384 16.4682ZM114.817 16.5168C114.817 15.8951 114.682 15.362 114.413 14.9175C114.097 14.3801 113.645 14.1114 113.061 14.1114C112.453 14.1114 111.992 14.3801 111.677 14.9175C111.406 15.362 111.273 15.9036 111.273 16.5439C111.273 17.1656 111.408 17.6987 111.677 18.1432C112.004 18.6806 112.459 18.9493 113.046 18.9493C113.622 18.9493 114.073 18.6763 114.398 18.1289C114.679 17.6759 114.817 17.1385 114.817 16.5168Z" fill="white"/>
<path d="M123.686 19.8926H122.331L122.219 19.1165H122.177C121.714 19.7354 121.053 20.0455 120.195 20.0455C119.554 20.0455 119.036 19.8411 118.646 19.4352C118.291 19.0665 118.114 18.6077 118.114 18.0632C118.114 17.24 118.46 16.6125 119.155 16.178C119.849 15.7436 120.825 15.5306 122.082 15.5406V15.4149C122.082 14.5273 121.613 14.0843 120.673 14.0843C120.003 14.0843 119.413 14.2515 118.903 14.5831L118.597 13.5998C119.227 13.2124 120.006 13.0181 120.925 13.0181C122.699 13.0181 123.588 13.9471 123.588 15.805V18.2861C123.588 18.9593 123.621 19.4952 123.686 19.8926ZM122.12 17.5772V16.5382C120.455 16.5096 119.623 16.9627 119.623 17.896C119.623 18.2475 119.718 18.5105 119.913 18.6863C120.107 18.8621 120.355 18.9493 120.65 18.9493C120.981 18.9493 121.29 18.845 121.573 18.6377C121.856 18.4291 122.031 18.1646 122.095 17.8402C122.111 17.7673 122.12 17.6787 122.12 17.5772Z" fill="white"/>
<path d="M132.26 19.8926H130.921L130.85 18.8107H130.809C130.381 19.634 129.652 20.0456 128.629 20.0456C127.811 20.0456 127.13 19.7269 126.59 19.0894C126.05 18.452 125.781 17.6245 125.781 16.6083C125.781 15.5178 126.073 14.6346 126.661 13.96C127.229 13.3311 127.926 13.0167 128.755 13.0167C129.667 13.0167 130.305 13.3211 130.668 13.9314H130.696V10.064H132.207V18.0775C132.207 18.7335 132.224 19.3381 132.26 19.8926ZM130.696 17.0514V15.928C130.696 15.7336 130.682 15.5764 130.655 15.4564C130.57 15.0962 130.387 14.7932 130.109 14.5488C129.828 14.3044 129.49 14.1815 129.1 14.1815C128.537 14.1815 128.096 14.403 127.772 14.8475C127.451 15.292 127.288 15.8594 127.288 16.5526C127.288 17.2186 127.442 17.7588 127.752 18.1747C128.079 18.6178 128.519 18.8393 129.071 18.8393C129.566 18.8393 129.962 18.6549 130.263 18.2848C130.554 17.9432 130.696 17.5316 130.696 17.0514Z" fill="white"/>
<path d="M145.165 16.4682C145.165 17.5044 144.867 18.3533 144.271 19.0193C143.646 19.7039 142.82 20.0455 141.785 20.0455C140.79 20.0455 139.997 19.7182 139.403 19.0608C138.813 18.4048 138.518 17.5772 138.518 16.5797C138.518 15.5363 138.822 14.6802 139.432 14.0157C140.043 13.3511 140.863 13.0181 141.898 13.0181C142.893 13.0181 143.695 13.3454 144.3 14.0014C144.876 14.6388 145.165 15.462 145.165 16.4682ZM143.602 16.5168C143.602 15.8951 143.466 15.362 143.197 14.9175C142.879 14.3801 142.43 14.1114 141.842 14.1114C141.238 14.1114 140.777 14.3801 140.459 14.9175C140.188 15.362 140.054 15.9036 140.054 16.5439C140.054 17.1656 140.189 17.6987 140.459 18.1432C140.786 18.6806 141.24 18.9493 141.828 18.9493C142.404 18.9493 142.857 18.6763 143.183 18.1289C143.461 17.6759 143.602 17.1385 143.602 16.5168Z" fill="white"/>
<path d="M153.278 19.8925H151.771V16.0336C151.771 14.8445 151.316 14.2499 150.402 14.2499C149.954 14.2499 149.592 14.4129 149.313 14.7402C149.034 15.0674 148.894 15.4533 148.894 15.895V19.891H147.384V15.0803C147.384 14.4886 147.366 13.8469 147.33 13.1523H148.655L148.726 14.2056H148.767C148.944 13.8783 149.206 13.6082 149.549 13.3924C149.96 13.1409 150.416 13.0137 150.918 13.0137C151.55 13.0137 152.077 13.2166 152.496 13.6239C153.019 14.1227 153.278 14.8674 153.278 15.8564V19.8925Z" fill="white"/>
<path d="M163.433 14.2774H161.772V17.5503C161.772 18.3821 162.067 18.798 162.651 18.798C162.922 18.798 163.147 18.7751 163.324 18.7279L163.363 19.8641C163.065 19.9756 162.673 20.0314 162.191 20.0314C161.594 20.0314 161.131 19.8513 160.795 19.4911C160.458 19.131 160.291 18.525 160.291 17.6746V14.2774H159.299V13.1554H160.291V11.9206L161.77 11.4775V13.154H163.432V14.2774H163.433Z" fill="white"/>
<path d="M171.422 19.8926H169.911V16.0624C169.911 14.8547 169.456 14.2501 168.545 14.2501C167.845 14.2501 167.367 14.6003 167.105 15.3006C167.06 15.4478 167.034 15.6279 167.034 15.8394V19.8912H165.527V10.064H167.034V14.1243H167.063C167.538 13.3854 168.219 13.0167 169.102 13.0167C169.727 13.0167 170.244 13.2197 170.654 13.627C171.165 14.1344 171.422 14.889 171.422 15.8866V19.8926Z" fill="white"/>
<path d="M179.662 16.2054C179.662 16.4741 179.641 16.6999 179.605 16.8842H175.08C175.1 17.5503 175.316 18.0576 175.735 18.4092C176.118 18.7236 176.612 18.8809 177.217 18.8809C177.886 18.8809 178.497 18.7751 179.047 18.5621L179.283 19.6026C178.639 19.8799 177.882 20.0185 177.005 20.0185C175.954 20.0185 175.126 19.7112 174.527 19.0967C173.925 18.4821 173.627 17.6574 173.627 16.6227C173.627 15.6065 173.905 14.7604 174.465 14.0859C175.05 13.3655 175.84 13.0054 176.838 13.0054C177.814 13.0054 178.556 13.3655 179.057 14.0859C179.461 14.6575 179.662 15.365 179.662 16.2054ZM178.222 15.8181C178.233 15.3736 178.134 14.9905 177.929 14.6675C177.667 14.2516 177.269 14.043 176.729 14.043C176.236 14.043 175.835 14.2459 175.528 14.6532C175.277 14.9777 175.129 15.365 175.08 15.8181H178.222Z" fill="white"/>
</svg>
