<svg width="133" height="50" viewBox="0 0 133 50" fill="none" xmlns="http://www.w3.org/2000/svg">
<path d="M28.4779 36.2074C28.9007 36.0668 29.3235 35.9262 29.6993 35.7856C35.2896 33.5361 40.8798 31.3335 46.47 29.084C59.9523 23.6946 73.4346 18.2583 86.9169 12.9157C91.9434 10.9006 97.0169 9.026 102.231 7.52633C104.486 6.87023 106.788 6.30786 109.09 5.97981C111.721 5.60489 114.304 6.21413 116.653 7.47947C118.532 8.51049 119.237 10.2445 118.579 12.3065C118.062 13.9936 117.123 15.3996 115.62 16.3368C114.116 17.2273 112.613 18.1177 111.063 18.8207C107.07 20.6015 103.03 22.2886 98.9899 23.9757C92.695 26.5533 86.3532 29.084 80.0113 31.6615C75.5485 33.4892 71.1327 35.5044 66.9518 37.8945C65.1667 38.9255 63.4755 40.0971 61.7844 41.2218C61.1267 41.6905 60.516 42.2997 59.8583 42.909C60.2811 43.1901 60.6569 43.0496 60.9388 42.9558C62.63 42.4872 64.3681 42.0654 66.0592 41.5499C71.3676 39.8159 76.4881 37.707 81.5615 35.4107C95.4196 29.1777 109.231 22.851 123.042 16.5712C124.31 16.0088 125.532 15.3996 126.847 14.884C127.693 14.556 128.585 14.3217 129.431 14.2279C130.934 14.0873 132.296 14.7903 132.766 15.8682C133.33 17.2273 132.813 18.3989 131.874 19.383C131.122 20.1797 130.182 20.6952 129.243 21.117C121.633 24.6318 114.069 28.1467 106.412 31.6146C96.5941 36.0668 86.8229 40.6595 76.8169 44.6898C72.4481 46.4707 68.0792 48.1578 63.5225 49.2825C61.8783 49.7043 60.1872 50.0792 58.449 49.9855C57.6035 49.9386 56.7579 49.8449 56.0062 49.5637C53.5165 48.7201 52.0602 46.4238 52.2951 43.7994C52.389 42.4872 52.8588 41.3156 53.5635 40.1908C54.3151 38.9724 55.2546 37.9413 56.3351 37.004C58.1202 35.3638 60.1402 34.0516 62.2541 32.8331C67.6565 29.6932 73.3406 27.1157 79.1188 24.7724C87.1987 21.4919 95.2787 18.2114 103.359 14.9309C104.204 14.6029 105.097 14.1811 105.942 13.8062C106.13 13.7124 106.318 13.6187 106.459 13.3375C106.036 13.4312 105.614 13.525 105.191 13.6656C99.9764 15.1652 94.8559 17.0398 89.7825 19.055C76.9109 24.1632 64.0862 29.3183 51.2146 34.4734C44.7788 37.0509 38.39 39.6753 31.9542 42.1591C29.4175 43.1433 26.7868 43.8931 24.1561 44.6898C22.9347 45.0647 21.7133 45.2053 20.4449 45.0647C16.6868 44.6429 14.9487 40.8469 17.1566 37.7539C17.5794 37.1915 18.0961 36.676 18.6128 36.2074C20.8207 34.1453 23.2166 32.3176 25.7533 30.6305C29.9812 27.8186 34.397 25.2879 38.9537 23.0385C46.9398 19.1018 54.9728 15.2121 63.0058 11.3224C64.509 10.5725 65.9653 9.82269 67.4686 9.02599C67.7504 8.8854 67.9853 8.69794 68.2672 8.55735C68.2202 8.51049 68.2202 8.41676 68.1732 8.36989C67.7504 8.46362 67.3276 8.60422 66.9048 8.69794C60.563 10.5725 54.456 13.0563 48.3491 15.587C36.2761 20.6015 24.6259 26.2721 13.0696 32.177C11.0026 33.2549 8.84171 34.239 6.72776 35.2232C6.07009 35.5512 5.36544 35.7856 4.66079 35.973C3.86219 36.2074 3.01661 36.2073 2.17103 35.8793C0.949634 35.4107 0.151031 34.4734 0.0101009 33.1612C-0.0838523 31.849 0.479867 30.8179 1.60731 30.115C1.79521 29.9744 1.98312 29.8807 2.218 29.7869C5.60032 28.5685 8.74775 26.8345 11.8952 25.2411C24.25 18.9144 36.7928 12.9626 49.6174 7.71379C55.6304 5.22998 61.7374 2.98049 68.0323 1.34023C70.4751 0.68413 72.9178 0.168622 75.4546 0.0280285C76.535 -0.0188359 77.6625 -0.0188359 78.7429 0.121757C79.4476 0.215486 80.1992 0.449808 80.8569 0.777859C83.0178 1.94947 83.7225 4.48015 82.3601 6.54218C81.8904 7.29201 81.2327 7.99498 80.528 8.51049C78.8839 9.72896 77.2397 10.9943 75.4546 12.0253C71.1797 14.4154 66.9048 16.8055 62.536 18.9612C54.7849 22.851 46.9867 26.5064 39.1886 30.3493C35.9002 31.9896 32.7058 33.7704 29.4645 35.4575C29.1356 35.645 28.8068 35.8324 28.4779 36.0668C28.4779 36.1136 28.4779 36.1605 28.4779 36.2074Z" fill="#2D2D2D"/>
<path d="M28.4779 36.2074C28.9007 36.0668 29.3235 35.9262 29.6993 35.7856C35.2896 33.5361 40.8798 31.3335 46.47 29.084C59.9523 23.6946 73.4346 18.2583 86.9169 12.9157C91.9434 10.9006 97.0169 9.026 102.231 7.52633C104.486 6.87023 106.788 6.30786 109.09 5.97981C111.721 5.60489 114.304 6.21413 116.653 7.47947C118.532 8.51049 119.237 10.2445 118.579 12.3065C118.062 13.9936 117.123 15.3996 115.62 16.3368C114.116 17.2273 112.613 18.1177 111.063 18.8207C107.07 20.6015 103.03 22.2886 98.9899 23.9757C92.695 26.5533 86.3532 29.084 80.0113 31.6615C75.5485 33.4892 71.1327 35.5044 66.9518 37.8945C65.1667 38.9255 63.4755 40.0971 61.7844 41.2218C61.1267 41.6905 60.516 42.2997 59.8583 42.909C60.2811 43.1901 60.6569 43.0496 60.9388 42.9558C62.63 42.4872 64.3681 42.0654 66.0592 41.5499C71.3676 39.8159 76.4881 37.707 81.5615 35.4107C95.4196 29.1777 109.231 22.851 123.042 16.5712C124.31 16.0088 125.532 15.3996 126.847 14.884C127.693 14.556 128.585 14.3217 129.431 14.2279C130.934 14.0873 132.296 14.7903 132.766 15.8682C133.33 17.2273 132.813 18.3989 131.874 19.383C131.122 20.1797 130.182 20.6952 129.243 21.117C121.633 24.6318 114.069 28.1467 106.412 31.6146C96.5941 36.0668 86.8229 40.6595 76.8169 44.6898C72.4481 46.4707 68.0792 48.1578 63.5225 49.2825C61.8783 49.7043 60.1872 50.0792 58.449 49.9855C57.6035 49.9386 56.7579 49.8449 56.0062 49.5637C53.5165 48.7201 52.0602 46.4238 52.2951 43.7994C52.389 42.4872 52.8588 41.3156 53.5635 40.1908C54.3151 38.9724 55.2546 37.9413 56.3351 37.004C58.1202 35.3638 60.1402 34.0516 62.2541 32.8331C67.6565 29.6932 73.3406 27.1157 79.1188 24.7724C87.1987 21.4919 95.2787 18.2114 103.359 14.9309C104.204 14.6029 105.097 14.1811 105.942 13.8062C106.13 13.7124 106.318 13.6187 106.459 13.3375C106.036 13.4312 105.614 13.525 105.191 13.6656C99.9764 15.1652 94.8559 17.0398 89.7825 19.055C76.9109 24.1632 64.0862 29.3183 51.2146 34.4734C44.7788 37.0509 38.39 39.6753 31.9542 42.1591C29.4175 43.1433 26.7868 43.8931 24.1561 44.6898C22.9347 45.0647 21.7133 45.2053 20.4449 45.0647C16.6868 44.6429 14.9487 40.8469 17.1566 37.7539C17.5794 37.1915 18.0961 36.676 18.6128 36.2074C20.8207 34.1453 23.2166 32.3176 25.7533 30.6305C29.9812 27.8186 34.397 25.2879 38.9537 23.0385C46.9398 19.1018 54.9728 15.2121 63.0058 11.3224C64.509 10.5725 65.9653 9.82269 67.4686 9.02599C67.7504 8.8854 67.9853 8.69794 68.2672 8.55735C68.2202 8.51049 68.2202 8.41676 68.1732 8.36989C67.7504 8.46362 67.3276 8.60422 66.9048 8.69794C60.563 10.5725 54.456 13.0563 48.3491 15.587C36.2761 20.6015 24.6259 26.2721 13.0696 32.177C11.0026 33.2549 8.84171 34.239 6.72776 35.2232C6.07009 35.5512 5.36544 35.7856 4.66079 35.973C3.86219 36.2074 3.01661 36.2073 2.17103 35.8793C0.949634 35.4107 0.151031 34.4734 0.0101009 33.1612C-0.0838523 31.849 0.479867 30.8179 1.60731 30.115C1.79521 29.9744 1.98312 29.8807 2.218 29.7869C5.60032 28.5685 8.74775 26.8345 11.8952 25.2411C24.25 18.9144 36.7928 12.9626 49.6174 7.71379C55.6304 5.22998 61.7374 2.98049 68.0323 1.34023C70.4751 0.68413 72.9178 0.168622 75.4546 0.0280285C76.535 -0.0188359 77.6625 -0.0188359 78.7429 0.121757C79.4476 0.215486 80.1992 0.449808 80.8569 0.777859C83.0178 1.94947 83.7225 4.48015 82.3601 6.54218C81.8904 7.29201 81.2327 7.99498 80.528 8.51049C78.8839 9.72896 77.2397 10.9943 75.4546 12.0253C71.1797 14.4154 66.9048 16.8055 62.536 18.9612C54.7849 22.851 46.9867 26.5064 39.1886 30.3493C35.9002 31.9896 32.7058 33.7704 29.4645 35.4575C29.1356 35.645 28.8068 35.8324 28.4779 36.0668C28.4779 36.1136 28.4779 36.1605 28.4779 36.2074Z" fill="url(#paint0_radial_98_270)"/>
<defs>
<radialGradient id="paint0_radial_98_270" cx="0" cy="0" r="1" gradientUnits="userSpaceOnUse" gradientTransform="translate(66.5 -9.61538) rotate(90) scale(59.6154 158.577)">
<stop stop-color="#05F6F9"/>
<stop offset="1" stop-color="#F907FC"/>
</radialGradient>
</defs>
</svg>
