<svg width="572" height="585" viewBox="0 0 572 585" fill="none" xmlns="http://www.w3.org/2000/svg">
<mask id="mask0_98_559" style="mask-type:alpha" maskUnits="userSpaceOnUse" x="0" y="0" width="572" height="585">
<path d="M0 56C0 29.6013 0 16.402 8.20101 8.20101C16.402 0 29.6013 0 56 0H516C542.399 0 555.598 0 563.799 8.20101C572 16.402 572 29.6013 572 56V529C572 555.399 572 568.598 563.799 576.799C555.598 585 542.399 585 516 585H56C29.6014 585 16.402 585 8.20101 576.799C0 568.598 0 555.399 0 529V56Z" fill="url(#paint0_linear_98_559)"/>
</mask>
<g mask="url(#mask0_98_559)">
<path d="M15.2746 78.8415L15.2785 78.8447C23.0239 85.3026 33.7413 88.5 47.3673 88.5H96.131H96.631V88V45.1255V44.6255H96.131H46.3676H45.8676V45.1255V73.7421C38.3519 73.3277 32.696 71.2644 28.8289 67.616C24.8912 63.8314 22.8746 57.9771 22.8746 49.9476C22.8746 41.5055 25.146 35.4915 29.5808 31.7778C34.1165 28.0418 41.1613 26.1276 50.8108 26.1276H91.7989H92.2989V25.6276V12V11.5H91.7989H49.5889C34.7882 11.5 23.4007 14.7278 15.5023 21.2588C7.65765 27.7367 3.76868 37.3302 3.76868 49.9476C3.76868 62.631 7.58097 72.2926 15.2746 78.8415ZM141.031 87.4759V87.9759H141.531H159.415H159.915V87.4759V60.8271L201.669 12.8524L202.39 12.0241H201.292H179.298H179.067L178.917 12.2002L150.417 45.7173L121.806 12.1995L121.656 12.0241H121.426H99.4322H98.3319L99.0555 12.853L141.031 60.9324V87.4759ZM208.566 87.4759V87.9759H209.066H226.839H227.339V87.4759V34.395L251.665 49.6996V87.4759V87.9759H252.165H269.938H270.438V87.4759V49.699L294.653 34.3971V87.4759V87.9759H295.153H312.925H313.425V87.4759V12.5241V12.0241H312.925H298.041H297.89L297.765 12.1071L261.123 36.3441H260.868L224.227 12.1071L224.101 12.0241H223.951H209.066H208.566V12.5241V87.4759ZM327.998 87.4759V87.9759H328.498H346.271H346.771V87.4759V61.0352H404.698H405.198V60.5352V46.9076V46.4076H404.698H346.771V26.6517H413.362H413.862V26.1517V12.5241V12.0241H413.362H328.498H327.998V12.5241V87.4759ZM425.084 87.4759V87.9759H425.584H443.356H443.856V87.4759V12.5241V12.0241H443.356H425.584H425.084V12.5241V87.4759ZM455.609 50.4717V50.9717H456.109H474.103H474.603V50.4717V26.6517H493.376V87.4759V87.9759H493.876H511.648H512.148V87.4759V26.6517H535.363V50.4717V50.9717H535.863H553.858H554.358V50.4717V12.5241V12.0241H553.858H456.109H455.609V12.5241V50.4717ZM77.8584 59.2531V73.8724H63.5295V59.2531H77.8584Z" stroke="white"/>
<path d="M15.2746 160.841L15.2785 160.845C23.0239 167.303 33.7413 170.5 47.3673 170.5H96.131H96.631V170V127.126V126.626H96.131H46.3676H45.8676V127.126V155.742C38.3519 155.328 32.696 153.264 28.8289 149.616C24.8912 145.831 22.8746 139.977 22.8746 131.948C22.8746 123.505 25.146 117.492 29.5808 113.778C34.1165 110.042 41.1613 108.128 50.8108 108.128H91.7989H92.2989V107.628V94V93.5H91.7989H49.5889C34.7882 93.5 23.4007 96.7278 15.5023 103.259C7.65765 109.737 3.76868 119.33 3.76868 131.948C3.76868 144.631 7.58097 154.293 15.2746 160.841ZM141.031 169.476V169.976H141.531H159.415H159.915V169.476V142.827L201.669 94.8524L202.39 94.0241H201.292H179.298H179.067L178.917 94.2002L150.417 127.717L121.806 94.1995L121.656 94.0241H121.426H99.4322H98.3319L99.0555 94.853L141.031 142.932V169.476ZM208.566 169.476V169.976H209.066H226.839H227.339V169.476V116.395L251.665 131.7V169.476V169.976H252.165H269.938H270.438V169.476V131.699L294.653 116.397V169.476V169.976H295.153H312.925H313.425V169.476V94.5241V94.0241H312.925H298.041H297.89L297.765 94.1071L261.123 118.344H260.868L224.227 94.1071L224.101 94.0241H223.951H209.066H208.566V94.5241V169.476ZM327.998 169.476V169.976H328.498H346.271H346.771V169.476V143.035H404.698H405.198V142.535V128.908V128.408H404.698H346.771V108.652H413.362H413.862V108.152V94.5241V94.0241H413.362H328.498H327.998V94.5241V169.476ZM425.084 169.476V169.976H425.584H443.356H443.856V169.476V94.5241V94.0241H443.356H425.584H425.084V94.5241V169.476ZM455.609 132.472V132.972H456.109H474.103H474.603V132.472V108.652H493.376V169.476V169.976H493.876H511.648H512.148V169.476V108.652H535.363V132.472V132.972H535.863H553.858H554.358V132.472V94.5241V94.0241H553.858H456.109H455.609V94.5241V132.472ZM77.8584 141.253V155.872H63.5295V141.253H77.8584Z" stroke="white"/>
<path d="M15.2746 242.841L15.2785 242.845C23.0239 249.303 33.7413 252.5 47.3673 252.5H96.131H96.631V252V209.126V208.626H96.131H46.3676H45.8676V209.126V237.742C38.3519 237.328 32.696 235.264 28.8289 231.616C24.8912 227.831 22.8746 221.977 22.8746 213.948C22.8746 205.505 25.146 199.492 29.5808 195.778C34.1165 192.042 41.1613 190.128 50.8108 190.128H91.7989H92.2989V189.628V176V175.5H91.7989H49.5889C34.7882 175.5 23.4007 178.728 15.5023 185.259C7.65765 191.737 3.76868 201.33 3.76868 213.948C3.76868 226.631 7.58097 236.293 15.2746 242.841ZM141.031 251.476V251.976H141.531H159.415H159.915V251.476V224.827L201.669 176.852L202.39 176.024H201.292H179.298H179.067L178.917 176.2L150.417 209.717L121.806 176.2L121.656 176.024H121.426H99.4322H98.3319L99.0555 176.853L141.031 224.932V251.476ZM208.566 251.476V251.976H209.066H226.839H227.339V251.476V198.395L251.665 213.7V251.476V251.976H252.165H269.938H270.438V251.476V213.699L294.653 198.397V251.476V251.976H295.153H312.925H313.425V251.476V176.524V176.024H312.925H298.041H297.89L297.765 176.107L261.123 200.344H260.868L224.227 176.107L224.101 176.024H223.951H209.066H208.566V176.524V251.476ZM327.998 251.476V251.976H328.498H346.271H346.771V251.476V225.035H404.698H405.198V224.535V210.908V210.408H404.698H346.771V190.652H413.362H413.862V190.152V176.524V176.024H413.362H328.498H327.998V176.524V251.476ZM425.084 251.476V251.976H425.584H443.356H443.856V251.476V176.524V176.024H443.356H425.584H425.084V176.524V251.476ZM455.609 214.472V214.972H456.109H474.103H474.603V214.472V190.652H493.376V251.476V251.976H493.876H511.648H512.148V251.476V190.652H535.363V214.472V214.972H535.863H553.858H554.358V214.472V176.524V176.024H553.858H456.109H455.609V176.524V214.472ZM77.8584 223.253V237.872H63.5295V223.253H77.8584Z" stroke="white"/>
<path d="M15.2746 324.841L15.2785 324.845C23.0239 331.303 33.7413 334.5 47.3673 334.5H96.131H96.631V334V291.126V290.626H96.131H46.3676H45.8676V291.126V319.742C38.3519 319.328 32.696 317.264 28.8289 313.616C24.8912 309.831 22.8746 303.977 22.8746 295.948C22.8746 287.505 25.146 281.492 29.5808 277.778C34.1165 274.042 41.1613 272.128 50.8108 272.128H91.7989H92.2989V271.628V258V257.5H91.7989H49.5889C34.7882 257.5 23.4007 260.728 15.5023 267.259C7.65765 273.737 3.76868 283.33 3.76868 295.948C3.76868 308.631 7.58097 318.293 15.2746 324.841ZM141.031 333.476V333.976H141.531H159.415H159.915V333.476V306.827L201.669 258.852L202.39 258.024H201.292H179.298H179.067L178.917 258.2L150.417 291.717L121.806 258.2L121.656 258.024H121.426H99.4322H98.3319L99.0555 258.853L141.031 306.932V333.476ZM208.566 333.476V333.976H209.066H226.839H227.339V333.476V280.395L251.665 295.7V333.476V333.976H252.165H269.938H270.438V333.476V295.699L294.653 280.397V333.476V333.976H295.153H312.925H313.425V333.476V258.524V258.024H312.925H298.041H297.89L297.765 258.107L261.123 282.344H260.868L224.227 258.107L224.101 258.024H223.951H209.066H208.566V258.524V333.476ZM327.998 333.476V333.976H328.498H346.271H346.771V333.476V307.035H404.698H405.198V306.535V292.908V292.408H404.698H346.771V272.652H413.362H413.862V272.152V258.524V258.024H413.362H328.498H327.998V258.524V333.476ZM425.084 333.476V333.976H425.584H443.356H443.856V333.476V258.524V258.024H443.356H425.584H425.084V258.524V333.476ZM455.609 296.472V296.972H456.109H474.103H474.603V296.472V272.652H493.376V333.476V333.976H493.876H511.648H512.148V333.476V272.652H535.363V296.472V296.972H535.863H553.858H554.358V296.472V258.524V258.024H553.858H456.109H455.609V258.524V296.472ZM77.8584 305.253V319.872H63.5295V305.253H77.8584Z" stroke="white"/>
</g>
<defs>
<linearGradient id="paint0_linear_98_559" x1="286" y1="0" x2="286" y2="585" gradientUnits="userSpaceOnUse">
<stop stop-color="white"/>
<stop offset="1" stop-color="white" stop-opacity="0"/>
</linearGradient>
</defs>
</svg>
