<svg width="536" height="585" viewBox="0 0 536 585" fill="none" xmlns="http://www.w3.org/2000/svg">
<mask id="mask0_98_579" style="mask-type:alpha" maskUnits="userSpaceOnUse" x="0" y="0" width="536" height="585">
<path d="M0 56C0 29.6013 0 16.402 8.20101 8.20101C16.402 0 29.6013 0 56 0H480C506.399 0 519.598 0 527.799 8.20101C536 16.402 536 29.6013 536 56V529C536 555.399 536 568.598 527.799 576.799C519.598 585 506.399 585 480 585H56C29.6013 585 16.402 585 8.20101 576.799C0 568.598 0 555.399 0 529V56Z" fill="url(#paint0_linear_98_579)"/>
</mask>
<g mask="url(#mask0_98_579)">
<path d="M14.2808 321.831L14.2846 321.834C21.55 328.299 31.6057 331.5 44.3862 331.5H90.0808H90.5808V331V288.126V287.626H90.0808H43.4494H42.9494V288.126V316.74C35.9359 316.322 30.6592 314.264 27.0477 310.627C23.359 306.844 21.4664 300.985 21.4664 292.948C21.4664 284.496 23.5986 278.478 27.7514 274.767C31.9927 271.039 38.58 269.128 47.6129 269.128H86.0214H86.5214V268.628V255V254.5H86.0214H46.4679C32.5881 254.5 21.9041 257.731 14.4946 264.269C7.13989 270.75 3.5 280.34 3.5 292.948C3.5 305.621 7.0682 315.279 14.2808 321.831ZM132.124 330.476V330.976H132.624H149.382H149.882V330.476V303.818L189.01 255.84L189.676 255.024H188.623H168.013H167.773L167.622 255.213L140.95 288.687L114.174 255.212L114.024 255.024H113.784H93.1742H92.1191L92.7872 255.841L132.124 303.923V330.476ZM195.408 330.476V330.976H195.908H212.562H213.062V330.476V277.428L235.794 292.69V330.476V330.976H236.294H252.949H253.449V330.476V292.689L276.076 277.43V330.476V330.976H276.576H293.231H293.731V330.476V255.524V255.024H293.231H279.283H279.124L278.994 255.116L244.671 279.344H244.468L210.144 255.116L210.015 255.024H209.856H195.908H195.408V255.524V330.476ZM307.323 330.476V330.976H307.823H324.477H324.977V330.476V304.035H379.228H379.728V303.535V289.908V289.408H379.228H324.977V269.652H387.346H387.846V269.152V255.524V255.024H387.346H307.823H307.323V255.524V330.476ZM398.299 330.476V330.976H398.799H415.453H415.953V330.476V255.524V255.024H415.453H398.799H398.299V255.524V330.476ZM426.902 293.472V293.972H427.402H444.265H444.765V293.472V269.652H462.292V330.476V330.976H462.792H479.447H479.947V330.476V269.652H501.638V293.472V293.972H502.138H519H519.5V293.472V255.524V255.024H519H427.402H426.902V255.524V293.472ZM72.9267 302.253V316.872H59.5626V302.253H72.9267Z" stroke="white"/>
<path d="M14.2808 403.831L14.2846 403.834C21.55 410.299 31.6057 413.5 44.3862 413.5H90.0808H90.5808V413V370.126V369.626H90.0808H43.4494H42.9494V370.126V398.74C35.9359 398.322 30.6592 396.264 27.0477 392.627C23.359 388.844 21.4664 382.985 21.4664 374.948C21.4664 366.496 23.5986 360.478 27.7514 356.767C31.9927 353.039 38.58 351.128 47.6129 351.128H86.0214H86.5214V350.628V337V336.5H86.0214H46.4679C32.5881 336.5 21.9041 339.731 14.4946 346.269C7.13989 352.75 3.5 362.34 3.5 374.948C3.5 387.621 7.0682 397.279 14.2808 403.831ZM132.124 412.476V412.976H132.624H149.382H149.882V412.476V385.818L189.01 337.84L189.676 337.024H188.623H168.013H167.773L167.622 337.213L140.95 370.687L114.174 337.212L114.024 337.024H113.784H93.1742H92.1191L92.7872 337.841L132.124 385.923V412.476ZM195.408 412.476V412.976H195.908H212.562H213.062V412.476V359.428L235.794 374.69V412.476V412.976H236.294H252.949H253.449V412.476V374.689L276.076 359.43V412.476V412.976H276.576H293.231H293.731V412.476V337.524V337.024H293.231H279.283H279.124L278.994 337.116L244.671 361.344H244.468L210.144 337.116L210.015 337.024H209.856H195.908H195.408V337.524V412.476ZM307.323 412.476V412.976H307.823H324.477H324.977V412.476V386.035H379.228H379.728V385.535V371.908V371.408H379.228H324.977V351.652H387.346H387.846V351.152V337.524V337.024H387.346H307.823H307.323V337.524V412.476ZM398.299 412.476V412.976H398.799H415.453H415.953V412.476V337.524V337.024H415.453H398.799H398.299V337.524V412.476ZM426.902 375.472V375.972H427.402H444.265H444.765V375.472V351.652H462.292V412.476V412.976H462.792H479.447H479.947V412.476V351.652H501.638V375.472V375.972H502.138H519H519.5V375.472V337.524V337.024H519H427.402H426.902V337.524V375.472ZM72.9267 384.253V398.872H59.5626V384.253H72.9267Z" stroke="white"/>
<path d="M14.2808 485.831L14.2846 485.834C21.55 492.299 31.6057 495.5 44.3862 495.5H90.0808H90.5808V495V452.126V451.626H90.0808H43.4494H42.9494V452.126V480.74C35.9359 480.322 30.6592 478.264 27.0477 474.627C23.359 470.844 21.4664 464.985 21.4664 456.948C21.4664 448.496 23.5986 442.478 27.7514 438.767C31.9927 435.039 38.58 433.128 47.6129 433.128H86.0214H86.5214V432.628V419V418.5H86.0214H46.4679C32.5881 418.5 21.9041 421.731 14.4946 428.269C7.13989 434.75 3.5 444.34 3.5 456.948C3.5 469.621 7.0682 479.279 14.2808 485.831ZM132.124 494.476V494.976H132.624H149.382H149.882V494.476V467.818L189.01 419.84L189.676 419.024H188.623H168.013H167.773L167.622 419.213L140.95 452.687L114.174 419.212L114.024 419.024H113.784H93.1742H92.1191L92.7872 419.841L132.124 467.923V494.476ZM195.408 494.476V494.976H195.908H212.562H213.062V494.476V441.428L235.794 456.69V494.476V494.976H236.294H252.949H253.449V494.476V456.689L276.076 441.43V494.476V494.976H276.576H293.231H293.731V494.476V419.524V419.024H293.231H279.283H279.124L278.994 419.116L244.671 443.344H244.468L210.144 419.116L210.015 419.024H209.856H195.908H195.408V419.524V494.476ZM307.323 494.476V494.976H307.823H324.477H324.977V494.476V468.035H379.228H379.728V467.535V453.908V453.408H379.228H324.977V433.652H387.346H387.846V433.152V419.524V419.024H387.346H307.823H307.323V419.524V494.476ZM398.299 494.476V494.976H398.799H415.453H415.953V494.476V419.524V419.024H415.453H398.799H398.299V419.524V494.476ZM426.902 457.472V457.972H427.402H444.265H444.765V457.472V433.652H462.292V494.476V494.976H462.792H479.447H479.947V494.476V433.652H501.638V457.472V457.972H502.138H519H519.5V457.472V419.524V419.024H519H427.402H426.902V419.524V457.472ZM72.9267 466.253V480.872H59.5626V466.253H72.9267Z" stroke="white"/>
<path d="M14.2808 567.831L14.2846 567.834C21.55 574.299 31.6057 577.5 44.3862 577.5H90.0808H90.5808V577V534.126V533.626H90.0808H43.4494H42.9494V534.126V562.74C35.9359 562.322 30.6592 560.264 27.0477 556.627C23.359 552.844 21.4664 546.985 21.4664 538.948C21.4664 530.496 23.5986 524.478 27.7514 520.767C31.9927 517.039 38.58 515.128 47.6129 515.128H86.0214H86.5214V514.628V501V500.5H86.0214H46.4679C32.5881 500.5 21.9041 503.731 14.4946 510.269C7.13989 516.75 3.5 526.34 3.5 538.948C3.5 551.621 7.0682 561.279 14.2808 567.831ZM132.124 576.476V576.976H132.624H149.382H149.882V576.476V549.818L189.01 501.84L189.676 501.024H188.623H168.013H167.773L167.622 501.213L140.95 534.687L114.174 501.212L114.024 501.024H113.784H93.1742H92.1191L92.7872 501.841L132.124 549.923V576.476ZM195.408 576.476V576.976H195.908H212.562H213.062V576.476V523.428L235.794 538.69V576.476V576.976H236.294H252.949H253.449V576.476V538.689L276.076 523.43V576.476V576.976H276.576H293.231H293.731V576.476V501.524V501.024H293.231H279.283H279.124L278.994 501.116L244.671 525.344H244.468L210.144 501.116L210.015 501.024H209.856H195.908H195.408V501.524V576.476ZM307.323 576.476V576.976H307.823H324.477H324.977V576.476V550.035H379.228H379.728V549.535V535.908V535.408H379.228H324.977V515.652H387.346H387.846V515.152V501.524V501.024H387.346H307.823H307.323V501.524V576.476ZM398.299 576.476V576.976H398.799H415.453H415.953V576.476V501.524V501.024H415.453H398.799H398.299V501.524V576.476ZM426.902 539.472V539.972H427.402H444.265H444.765V539.472V515.652H462.292V576.476V576.976H462.792H479.447H479.947V576.476V515.652H501.638V539.472V539.972H502.138H519H519.5V539.472V501.524V501.024H519H427.402H426.902V501.524V539.472ZM72.9267 548.253V562.872H59.5626V548.253H72.9267Z" stroke="white"/>
</g>
<defs>
<linearGradient id="paint0_linear_98_579" x1="268" y1="0" x2="268" y2="585" gradientUnits="userSpaceOnUse">
<stop stop-color="white"/>
<stop offset="1" stop-color="white" stop-opacity="0"/>
</linearGradient>
</defs>
</svg>
