<svg width="36" height="36" viewBox="0 0 36 36" fill="none" xmlns="http://www.w3.org/2000/svg">
<path d="M28.2487 26.8413L23.1252 23.4253C21.9339 22.632 20.3296 22.7862 19.315 23.8027L17.9663 25.1504C17.174 25.0364 15.2945 24.5656 13.3638 22.6349C11.4332 20.7053 10.9633 18.8238 10.8493 18.0324L12.196 16.6847C13.2104 15.6692 13.3697 14.067 12.5734 12.8736L9.15643 7.74907C8.65312 6.99405 7.84701 6.50852 6.94268 6.41903C6.04618 6.33158 5.14967 6.64514 4.50872 7.28903L2.3736 9.42506C1.35327 10.4445 0.818471 11.8355 0.902979 13.2382C1.06418 15.9759 2.24774 21.4848 8.38181 27.6178C14.5119 33.7489 20.0208 34.9353 22.7594 35.0966C24.1094 35.181 25.5231 34.6755 26.5734 33.6251L28.7105 31.4891C29.3533 30.8462 29.6679 29.9596 29.5794 29.0561C29.5359 28.6114 29.3938 28.1818 29.1637 27.7987C28.9335 27.4157 28.621 27.0886 28.2487 26.8413ZM26.0448 0.894531C21.0491 0.894531 16.9854 4.95838 16.9854 9.95397C16.9846 11.5036 17.3827 13.0273 18.1414 14.3785L17.0365 17.6884C16.9777 17.8658 16.9693 18.0561 17.0124 18.238C17.0554 18.4199 17.1482 18.5863 17.2803 18.7185C17.4124 18.8509 17.5788 18.9437 17.7608 18.9866C17.9428 19.0295 18.1331 19.0208 18.3105 18.9614L21.6212 17.8585C22.9679 18.6155 24.4877 19.0135 26.0447 19.0135C31.0404 19.0135 35.1042 14.9497 35.1042 9.95409C35.1042 4.9585 31.0406 0.894531 26.0448 0.894531ZM22.0184 10.9606C21.8862 10.9606 21.7553 10.9345 21.6331 10.8839C21.511 10.8333 21.4 10.7591 21.3065 10.6656C21.2131 10.5722 21.1389 10.4612 21.0884 10.339C21.0378 10.2169 21.0117 10.086 21.0118 9.95375C21.0118 9.82154 21.0378 9.69063 21.0884 9.5685C21.139 9.44636 21.2132 9.33539 21.3067 9.24191C21.4002 9.14844 21.5112 9.0743 21.6333 9.02372C21.7555 8.97314 21.8864 8.94711 22.0186 8.94713C22.2856 8.94716 22.5417 9.05325 22.7304 9.24207C22.9192 9.43089 23.0253 9.68697 23.0252 9.95397C23.0252 10.221 22.9191 10.477 22.7303 10.6658C22.5415 10.8546 22.2854 10.9606 22.0184 10.9606ZM26.0448 10.9606C25.9126 10.9606 25.7817 10.9345 25.6596 10.8839C25.5375 10.8333 25.4265 10.7591 25.333 10.6656C25.2395 10.5722 25.1654 10.4612 25.1148 10.339C25.0642 10.2169 25.0382 10.086 25.0382 9.95375C25.0382 9.82154 25.0643 9.69063 25.1149 9.5685C25.1655 9.44636 25.2397 9.33539 25.3332 9.24191C25.4267 9.14844 25.5377 9.0743 25.6598 9.02372C25.782 8.97314 25.9129 8.94711 26.0451 8.94713C26.3121 8.94716 26.5681 9.05325 26.7569 9.24207C26.9457 9.43089 27.0517 9.68697 27.0517 9.95397C27.0517 10.221 26.9456 10.477 26.7567 10.6658C26.5679 10.8546 26.3118 10.9606 26.0448 10.9606ZM30.0712 10.9606C29.939 10.9606 29.8081 10.9345 29.686 10.8839C29.5638 10.8333 29.4528 10.7591 29.3594 10.6656C29.2659 10.5722 29.1918 10.4612 29.1412 10.339C29.0906 10.2169 29.0646 10.086 29.0646 9.95375C29.0646 9.82154 29.0907 9.69063 29.1413 9.5685C29.1919 9.44636 29.266 9.33539 29.3595 9.24191C29.453 9.14844 29.564 9.0743 29.6862 9.02372C29.8083 8.97314 29.9392 8.94711 30.0714 8.94713C30.3384 8.94716 30.5945 9.05325 30.7833 9.24207C30.972 9.43089 31.0781 9.68697 31.078 9.95397C31.078 10.221 30.9719 10.477 30.7831 10.6658C30.5943 10.8546 30.3382 10.9606 30.0712 10.9606Z" fill="white"/>
</svg>
