<svg width="24" height="24" viewBox="0 0 24 24" fill="none" xmlns="http://www.w3.org/2000/svg">
<g opacity="0.5">
<path d="M22.5 21.7499C22.3607 21.7499 22.2241 21.7112 22.1056 21.6379C21.9871 21.5647 21.8914 21.4599 21.8291 21.3353C20.4405 18.5581 19.1257 15.9293 12 15.7587V20.9999C12 21.1457 11.9575 21.2883 11.8776 21.4104C11.7978 21.5324 11.6841 21.6285 11.5505 21.6869C11.4169 21.7454 11.2692 21.7636 11.1254 21.7394C10.9816 21.7151 10.848 21.6495 10.7409 21.5506L0.990937 12.5506C0.837187 12.4094 0.75 12.2093 0.75 11.9999C0.75 11.7904 0.837187 11.5904 0.990937 11.449L10.7409 2.449C10.8482 2.35015 10.9818 2.28463 11.1257 2.26042C11.2695 2.23622 11.4173 2.25438 11.5509 2.31269C11.6845 2.37123 11.798 2.46739 11.8778 2.58943C11.9575 2.71147 12 2.85409 12 2.99987V8.25869C22.3879 8.5165 23.25 14.1846 23.25 20.9999C23.2498 21.1689 23.1927 21.3329 23.0879 21.4654C22.983 21.5979 22.8365 21.6912 22.6721 21.7302C22.6149 21.7433 22.5572 21.7499 22.5 21.7499ZM2.60588 11.9999L10.5 19.2867V14.9999C10.5 14.5853 10.8354 14.2499 11.25 14.2499C17.469 14.2499 20.1167 15.9858 21.6701 18.0724C21.3193 12.9543 19.5352 9.74988 11.25 9.74988C10.8354 9.74988 10.5 9.41444 10.5 8.99988V4.71306L2.60588 11.9999Z" fill="#2D2D2D"/>
</g>
</svg>
