<svg width="24" height="24" viewBox="0 0 24 24" fill="none" xmlns="http://www.w3.org/2000/svg">
<path d="M7.56372 9.23047H4.18286V20.0118H7.56372V9.23047Z" fill="white"/>
<path d="M16.7091 8.99693C16.5844 8.98135 16.452 8.97356 16.3196 8.96577C14.4266 8.88787 13.3594 10.0096 12.9855 10.4926C12.8842 10.625 12.8375 10.7029 12.8375 10.7029V9.26179H9.60461V20.0431H12.8375H12.9855C12.9855 18.9448 12.9855 17.8542 12.9855 16.7558C12.9855 16.1637 12.9855 15.5717 12.9855 14.9797C12.9855 14.2474 12.9309 13.4684 13.2971 12.7985C13.6087 12.2376 14.1695 11.9571 14.8005 11.9571C16.6701 11.9571 16.7091 13.6476 16.7091 13.8034C16.7091 13.8112 16.7091 13.8189 16.7091 13.8189V20.0899H20.0899V13.0555C20.0899 10.6484 18.8669 9.23063 16.7091 8.99693Z" fill="white"/>
<path d="M5.87323 7.83631C6.95741 7.83631 7.83632 6.95741 7.83632 5.87324C7.83632 4.78906 6.95741 3.91016 5.87323 3.91016C4.78905 3.91016 3.91016 4.78906 3.91016 5.87324C3.91016 6.95741 4.78905 7.83631 5.87323 7.83631Z" fill="white"/>
</svg>
