<svg width="38" height="26" viewBox="0 0 38 26" fill="none" xmlns="http://www.w3.org/2000/svg">
<path fill-rule="evenodd" clip-rule="evenodd" d="M0.347169 3.87703V22.1229C0.347169 22.5078 0.422941 22.8757 0.560142 23.2123L12.763 12.7993L0.597447 2.70017C0.432075 3.07049 0.346788 3.47147 0.347169 3.87703ZM2.40502 24.8989L14.6999 14.4073L16.8842 16.2207C17.5057 16.7366 18.2538 16.9946 18.9998 16.9946C19.7457 16.9946 20.4939 16.7366 21.1153 16.2207L23.2997 14.4073L35.5946 24.8989C35.3212 24.9824 35.0368 25.0247 34.7509 25.0245H3.2487C2.9628 25.0247 2.67847 24.9824 2.40502 24.8989ZM37.4396 23.2124C37.5805 22.8665 37.6529 22.4965 37.6526 22.123V3.87703C37.6526 3.45847 37.5629 3.06013 37.4023 2.70009L25.2367 12.7993L37.4396 23.2124ZM35.4878 1.07076L19.5319 14.3166C19.3786 14.4438 19.1903 14.5075 18.9999 14.5075C18.8094 14.5075 18.6212 14.4438 18.4678 14.3166L2.51188 1.07076C2.75237 1.00746 3.00002 0.975472 3.2487 0.975586H34.751C35.0054 0.975586 35.2524 1.00875 35.4878 1.07076Z" fill="white"/>
</svg>
