<svg width="1005" height="31" viewBox="0 0 1005 31" fill="none" xmlns="http://www.w3.org/2000/svg">
<path opacity="0.25" d="M15.1713 0.237305V0.237305C16.4836 7.26576 21.6857 12.9367 28.5756 14.8497L30.2771 15.3221V15.3221C22.6554 16.2543 16.5669 22.1008 15.3268 29.6781L15.2076 30.4068L15.1299 29.9686C13.7835 22.3686 7.73367 16.4724 0.10175 15.3221V15.3221L1.0723 15.0734C8.22895 13.2402 13.7045 7.47836 15.1713 0.237305V0.237305Z" fill="white"/>
<path d="M71.5765 28.2373C67.3353 28.2373 64.0212 27.1495 61.6341 24.9739C59.2702 22.7743 58.0883 19.5228 58.0883 15.2194C58.0883 10.9398 59.2934 7.71225 61.7036 5.53662C64.1371 3.33707 67.6598 2.2373 72.2717 2.2373H85.4818V6.89937H72.6541C69.6181 6.89937 67.3701 7.55684 65.91 8.87179C64.4731 10.1867 63.7547 12.3026 63.7547 15.2194C63.7547 17.9927 64.392 20.0488 65.6667 21.3877C66.9413 22.7026 68.807 23.4198 71.2636 23.5394V13.5697H86.8376V28.2373H71.5765ZM76.4781 23.5752H81.2754V18.2318H76.4781V23.5752Z" fill="white"/>
<path d="M101.046 28.058V18.9132L87.8707 2.41661H94.7539L103.827 14.0359L112.866 2.41661H119.749L106.643 18.8773V28.058H101.046Z" fill="white"/>
<path d="M122.182 28.058V2.41661H126.84L138.347 10.7366H138.521L150.027 2.41661H154.686V28.058H149.124V9.58903L141.232 15.0401V28.058H135.67V15.0401L127.744 9.58903V28.058H122.182Z" fill="white"/>
<path d="M159.559 28.058V2.41661H186.119V7.07868H165.121V14.1794H183.407V18.8414H165.121V28.058H159.559Z" fill="white"/>
<path d="M189.943 28.058V2.41661H195.505V28.058H189.943Z" fill="white"/>
<path d="M199.496 15.3987V2.41661H230.088V15.3987H224.457V7.07868H216.878V28.058H211.316V7.07868H205.128V15.3987H199.496Z" fill="white"/>
<path opacity="0.25" d="M273.176 0.237793V0.237793C274.488 7.26625 279.69 12.9372 286.58 14.8502L288.282 15.3226V15.3226C280.66 16.2548 274.572 22.1013 273.332 29.6786L273.212 30.4073L273.135 29.9691C271.788 22.3691 265.738 16.4729 258.107 15.3226V15.3226L259.077 15.0739C266.234 13.2407 271.709 7.47885 273.176 0.237793V0.237793Z" fill="white"/>
<path d="M329.582 28.2378C325.34 28.2378 322.026 27.15 319.639 24.9743C317.275 22.7748 316.093 19.5233 316.093 15.2199C316.093 10.9403 317.299 7.71274 319.709 5.5371C322.142 3.33756 325.665 2.23779 330.277 2.23779H343.487V6.89986H330.659C327.623 6.89986 325.375 7.55733 323.915 8.87228C322.478 10.1872 321.76 12.3031 321.76 15.2199C321.76 17.9932 322.397 20.0493 323.672 21.3881C324.946 22.7031 326.812 23.4203 329.269 23.5399V13.5702H344.843V28.2378H329.582ZM334.483 23.5757H339.281V18.2323H334.483V23.5757Z" fill="url(#paint0_linear_484_988)"/>
<path d="M359.051 28.0585V18.9137L345.876 2.4171H352.759L361.832 14.0364L370.871 2.4171H377.754L364.648 18.8778V28.0585H359.051Z" fill="url(#paint1_linear_484_988)"/>
<path d="M380.187 28.0585V2.4171H384.845L396.352 10.7371H396.526L408.032 2.4171H412.691V28.0585H407.129V9.58952L399.237 15.0406V28.0585H393.675V15.0406L385.749 9.58952V28.0585H380.187Z" fill="url(#paint2_linear_484_988)"/>
<path d="M417.564 28.0585V2.4171H444.124V7.07917H423.127V14.1799H441.412V18.8419H423.127V28.0585H417.564Z" fill="url(#paint3_linear_484_988)"/>
<path d="M447.948 28.0585V2.4171H453.511V28.0585H447.948Z" fill="url(#paint4_linear_484_988)"/>
<path d="M457.502 15.3992V2.4171H488.093V15.3992H482.462V7.07917H474.883V28.0585H469.321V7.07917H463.133V15.3992H457.502Z" fill="url(#paint5_linear_484_988)"/>
<path opacity="0.25" d="M531.181 0.237305V0.237305C532.493 7.26576 537.695 12.9367 544.585 14.8497L546.287 15.3221V15.3221C538.665 16.2543 532.576 22.1008 531.336 29.6781L531.217 30.4068L531.139 29.9686C529.793 22.3686 523.743 16.4724 516.111 15.3221V15.3221L517.082 15.0734C524.238 13.2402 529.714 7.47836 531.181 0.237305V0.237305Z" fill="white"/>
<path d="M587.586 28.2373C583.345 28.2373 580.031 27.1495 577.644 24.9739C575.28 22.7743 574.098 19.5228 574.098 15.2194C574.098 10.9398 575.303 7.71225 577.713 5.53662C580.147 3.33707 583.669 2.2373 588.281 2.2373H601.491V6.89937H588.664C585.628 6.89937 583.38 7.55684 581.92 8.87179C580.483 10.1867 579.764 12.3026 579.764 15.2194C579.764 17.9927 580.402 20.0488 581.676 21.3877C582.951 22.7026 584.817 23.4198 587.273 23.5394V13.5697H602.847V28.2373H587.586ZM592.488 23.5752H597.285V18.2318H592.488V23.5752Z" fill="white"/>
<path d="M617.056 28.058V18.9132L603.88 2.41661H610.763L619.837 14.0359L628.875 2.41661H635.758L622.653 18.8773V28.058H617.056Z" fill="white"/>
<path d="M638.192 28.058V2.41661H642.85L654.357 10.7366H654.53L666.037 2.41661H670.695V28.058H665.133V9.58903L657.242 15.0401V28.058H651.68V15.0401L643.754 9.58903V28.058H638.192Z" fill="white"/>
<path d="M675.569 28.058V2.41661H702.128V7.07868H681.131V14.1794H699.417V18.8414H681.131V28.058H675.569Z" fill="white"/>
<path d="M705.953 28.058V2.41661H711.515V28.058H705.953Z" fill="white"/>
<path d="M715.506 15.3987V2.41661H746.098V15.3987H740.466V7.07868H732.888V28.058H727.326V7.07868H721.138V15.3987H715.506Z" fill="white"/>
<path opacity="0.25" d="M789.186 0.237793V0.237793C790.498 7.26625 795.7 12.9372 802.59 14.8502L804.291 15.3226V15.3226C796.67 16.2548 790.581 22.1013 789.341 29.6786L789.222 30.4073L789.144 29.9691C787.798 22.3691 781.748 16.4729 774.116 15.3226V15.3226L775.087 15.0739C782.243 13.2407 787.719 7.47885 789.186 0.237793V0.237793Z" fill="white"/>
<path d="M845.591 28.2378C841.35 28.2378 838.036 27.15 835.649 24.9743C833.285 22.7748 832.103 19.5233 832.103 15.2199C832.103 10.9403 833.308 7.71274 835.718 5.5371C838.152 3.33756 841.674 2.23779 846.286 2.23779H859.496V6.89986H846.669C843.633 6.89986 841.385 7.55733 839.925 8.87228C838.488 10.1872 837.769 12.3031 837.769 15.2199C837.769 17.9932 838.407 20.0493 839.681 21.3881C840.956 22.7031 842.821 23.4203 845.278 23.5399V13.5702H860.852V28.2378H845.591ZM850.493 23.5757H855.29V18.2323H850.493V23.5757Z" fill="white"/>
<path d="M875.061 28.0585V18.9137L861.885 2.4171H868.768L877.842 14.0364L886.88 2.4171H893.763L880.657 18.8778V28.0585H875.061Z" fill="white"/>
<path d="M896.196 28.0585V2.4171H900.855L912.361 10.7371H912.535L924.042 2.4171H928.7V28.0585H923.138V9.58952L915.247 15.0406V28.0585H909.685V15.0406L901.759 9.58952V28.0585H896.196Z" fill="white"/>
<path d="M933.574 28.0585V2.4171H960.133V7.07917H939.136V14.1799H957.422V18.8419H939.136V28.0585H933.574Z" fill="white"/>
<path d="M963.958 28.0585V2.4171H969.52V28.0585H963.958Z" fill="white"/>
<path d="M973.511 15.3992V2.4171H1004.1V15.3992H998.471V7.07917H990.893V28.0585H985.331V7.07917H979.143V15.3992H973.511Z" fill="white"/>
<defs>
<linearGradient id="paint0_linear_484_988" x1="321.584" y1="15.2378" x2="488.084" y2="15.2378" gradientUnits="userSpaceOnUse">
<stop stop-color="white"/>
<stop offset="0.628811" stop-color="white" stop-opacity="0.42"/>
<stop offset="1" stop-color="white"/>
</linearGradient>
<linearGradient id="paint1_linear_484_988" x1="321.584" y1="15.2378" x2="488.084" y2="15.2378" gradientUnits="userSpaceOnUse">
<stop stop-color="white"/>
<stop offset="0.628811" stop-color="white" stop-opacity="0.42"/>
<stop offset="1" stop-color="white"/>
</linearGradient>
<linearGradient id="paint2_linear_484_988" x1="321.584" y1="15.2378" x2="488.084" y2="15.2378" gradientUnits="userSpaceOnUse">
<stop stop-color="white"/>
<stop offset="0.628811" stop-color="white" stop-opacity="0.42"/>
<stop offset="1" stop-color="white"/>
</linearGradient>
<linearGradient id="paint3_linear_484_988" x1="321.584" y1="15.2378" x2="488.084" y2="15.2378" gradientUnits="userSpaceOnUse">
<stop stop-color="white"/>
<stop offset="0.628811" stop-color="white" stop-opacity="0.42"/>
<stop offset="1" stop-color="white"/>
</linearGradient>
<linearGradient id="paint4_linear_484_988" x1="321.584" y1="15.2378" x2="488.084" y2="15.2378" gradientUnits="userSpaceOnUse">
<stop stop-color="white"/>
<stop offset="0.628811" stop-color="white" stop-opacity="0.42"/>
<stop offset="1" stop-color="white"/>
</linearGradient>
<linearGradient id="paint5_linear_484_988" x1="321.584" y1="15.2378" x2="488.084" y2="15.2378" gradientUnits="userSpaceOnUse">
<stop stop-color="white"/>
<stop offset="0.628811" stop-color="white" stop-opacity="0.42"/>
<stop offset="1" stop-color="white"/>
</linearGradient>
</defs>
</svg>
