<svg width="30" height="30" viewBox="0 0 30 30" fill="none" xmlns="http://www.w3.org/2000/svg">
<path d="M15 27.5C21.875 27.5 27.5 21.875 27.5 15C27.5 8.125 21.875 2.5 15 2.5C8.125 2.5 2.5 8.125 2.5 15C2.5 21.875 8.125 27.5 15 27.5Z" fill="url(#paint0_radial_491_999)"/>
<path d="M15 27.5C21.875 27.5 27.5 21.875 27.5 15C27.5 8.125 21.875 2.5 15 2.5C8.125 2.5 2.5 8.125 2.5 15C2.5 21.875 8.125 27.5 15 27.5Z" fill="url(#paint1_linear_491_999)"/>
<path d="M10.3125 15H19.6875" stroke="white" stroke-width="2" stroke-linecap="round" stroke-linejoin="round"/>
<defs>
<radialGradient id="paint0_radial_491_999" cx="0" cy="0" r="1" gradientUnits="userSpaceOnUse" gradientTransform="translate(15 -2.30769) rotate(90) scale(29.8077)">
<stop stop-color="#05F6F9"/>
<stop offset="1" stop-color="#F907FC"/>
</radialGradient>
<linearGradient id="paint1_linear_491_999" x1="27.2719" y1="16.3889" x2="2.75992" y2="16.2719" gradientUnits="userSpaceOnUse">
<stop stop-color="white"/>
<stop offset="0.0001" stop-color="#D8D8D8"/>
<stop offset="1" stop-color="#E7E7E7"/>
</linearGradient>
</defs>
</svg>
