<svg width="126" height="22" viewBox="0 0 126 22" fill="none" xmlns="http://www.w3.org/2000/svg">
<path d="M11 0L14.2328 6.55041L21.4616 7.60081L16.2308 12.6996L17.4656 19.8992L11 16.5L4.53436 19.8992L5.76919 12.6996L0.538379 7.60081L7.76718 6.55041L11 0Z" fill="#16CC3E"/>
<path d="M37 0L40.2328 6.55041L47.4616 7.60081L42.2308 12.6996L43.4656 19.8992L37 16.5L30.5344 19.8992L31.7692 12.6996L26.5384 7.60081L33.7672 6.55041L37 0Z" fill="#16CC3E"/>
<path d="M63 0L66.2328 6.55041L73.4616 7.60081L68.2308 12.6996L69.4656 19.8992L63 16.5L56.5344 19.8992L57.7692 12.6996L52.5384 7.60081L59.7672 6.55041L63 0Z" fill="#16CC3E"/>
<path d="M89 0L92.2328 6.55041L99.4616 7.60081L94.2308 12.6996L95.4656 19.8992L89 16.5L82.5344 19.8992L83.7692 12.6996L78.5384 7.60081L85.7672 6.55041L89 0Z" fill="#16CC3E"/>
<path d="M115 0L118.233 6.55041L125.462 7.60081L120.231 12.6996L121.466 19.8992L115 16.5L108.534 19.8992L109.769 12.6996L104.538 7.60081L111.767 6.55041L115 0Z" fill="#D9D9D9"/>
</svg>
