<svg width="80" height="80" viewBox="0 0 80 80" fill="none" xmlns="http://www.w3.org/2000/svg">
<path d="M64.725 49.0352H61.2888V53.1645H64.725C66.4864 53.1645 67.9206 54.5988 67.9206 56.3602V62.5013C67.9206 64.253 66.4864 65.6872 64.725 65.6872H61.2888V67.2659C61.2888 68.1417 61.1925 68.9889 61 69.807H64.725C68.7581 69.807 72.0405 66.5248 72.0405 62.5013V56.3602C72.0405 52.3175 68.7581 49.0352 64.725 49.0352Z" fill="url(#paint0_linear_98_302)"/>
<path d="M64.725 49.0352H61.2888V53.1645H64.725C66.4864 53.1645 67.9206 54.5988 67.9206 56.3602V62.5013C67.9206 64.253 66.4864 65.6872 64.725 65.6872H61.2888V67.2659C61.2888 68.1417 61.1925 68.9889 61 69.807H64.725C68.7581 69.807 72.0405 66.5248 72.0405 62.5013V56.3602C72.0405 52.3175 68.7581 49.0352 64.725 49.0352Z" fill="white" fill-opacity="0.2"/>
<path d="M64.725 49.0352H61.2888V53.1645H64.725C66.4864 53.1645 67.9206 54.5988 67.9206 56.3602V62.5013C67.9206 64.253 66.4864 65.6872 64.725 65.6872H61.2888V67.2659C61.2888 68.1417 61.1925 68.9889 61 69.807H64.725C68.7581 69.807 72.0405 66.5248 72.0405 62.5013V56.3602C72.0405 52.3175 68.7581 49.0352 64.725 49.0352Z" fill="url(#paint1_radial_98_302)"/>
<path d="M63.4344 48.8296V67.2637C63.4344 73.5378 58.3483 78.624 52.0741 78.624H44.2421C37.9599 78.624 32.8816 73.5356 32.8816 67.2637V48.8296C32.8816 47.2693 34.1464 46.0046 35.7066 46.0046H60.6092C62.1696 46.0045 63.4344 47.2693 63.4344 48.8296Z" fill="url(#paint2_linear_98_302)"/>
<path d="M63.4344 48.8296V67.2637C63.4344 73.5378 58.3483 78.624 52.0741 78.624H44.2421C37.9599 78.624 32.8816 73.5356 32.8816 67.2637V48.8296C32.8816 47.2693 34.1464 46.0046 35.7066 46.0046H60.6092C62.1696 46.0045 63.4344 47.2693 63.4344 48.8296Z" fill="url(#paint3_radial_98_302)"/>
<path d="M63.8784 34.1795C63.8784 37.5703 63.2117 40.8066 62.0001 43.7501C61.683 44.5308 61.3253 45.2869 60.935 46.0269C60.8274 46.0107 60.7187 46.0025 60.6098 46.0025H35.7114C34.1501 46.0025 32.8817 47.2709 32.8817 48.8323V58.7851C32.0523 58.59 31.2392 58.3623 30.4423 58.0776C20.5058 54.6869 13.3664 45.2708 13.3664 34.1797C13.3664 20.2342 24.6772 8.92358 38.6225 8.92358C52.5759 8.92343 63.8784 20.2341 63.8784 34.1795Z" fill="white" fill-opacity="0.5"/>
<path d="M63.8784 34.1795C63.8784 37.5703 63.2117 40.8066 62.0001 43.7501C61.683 44.5308 61.3253 45.2869 60.935 46.0269C60.8274 46.0107 60.7187 46.0025 60.6098 46.0025H35.7114C34.1501 46.0025 32.8817 47.2709 32.8817 48.8323V58.7851C32.0523 58.59 31.2392 58.3623 30.4423 58.0776C20.5058 54.6869 13.3664 45.2708 13.3664 34.1797C13.3664 20.2342 24.6772 8.92358 38.6225 8.92358C52.5759 8.92343 63.8784 20.2341 63.8784 34.1795Z" fill="url(#paint4_linear_98_302)"/>
<path d="M48.1583 43.703C48.0515 43.7031 47.9458 43.682 47.8471 43.6412C47.7484 43.6003 47.6588 43.5404 47.5833 43.4649C47.5078 43.3894 47.4479 43.2998 47.407 43.2011C47.3662 43.1025 47.3452 42.9967 47.3452 42.8899V41.771C47.3452 39.9832 48.7999 38.5288 50.5874 38.5288H57.4378C58.185 38.5288 58.7933 37.921 58.7933 37.1737C58.7933 36.4265 58.185 35.8185 57.4378 35.8185H39.5425C37.8988 35.8185 36.5616 34.4809 36.5616 32.8371C36.5616 31.1274 37.8988 29.7898 39.5425 29.7898H49.4042C50.2952 29.7898 51.0202 29.0648 51.0202 28.1738V26.858C51.0202 26.409 51.3839 26.0449 51.8333 26.0449C52.2827 26.0449 52.6464 26.409 52.6464 26.858V28.1738C52.6464 29.9616 51.1917 31.416 49.4042 31.416H39.5425C38.7953 31.416 38.1878 32.0238 38.1878 32.7712C38.1878 33.5843 38.7953 34.1921 39.5425 34.1921H57.4378C59.0824 34.1921 60.4196 35.5298 60.4196 37.1735C60.4196 38.8173 59.0824 40.1549 57.4378 40.1549H50.5874C49.6964 40.1549 48.9714 40.8799 48.9714 41.7709V42.8898C48.9715 42.9966 48.9505 43.1023 48.9096 43.201C48.8688 43.2997 48.8089 43.3894 48.7334 43.4649C48.6579 43.5404 48.5682 43.6003 48.4695 43.6412C48.3709 43.682 48.2651 43.7031 48.1583 43.703Z" fill="white" stroke="white"/>
<path d="M38.6222 4.97113C38.5154 4.97115 38.4097 4.95014 38.311 4.90928C38.2124 4.86842 38.1227 4.80853 38.0472 4.73302C37.9717 4.65751 37.9118 4.56786 37.8709 4.4692C37.8301 4.37054 37.8091 4.26479 37.8091 4.15801V2.1891C37.8091 1.74004 38.1728 1.37598 38.6222 1.37598C39.0716 1.37598 39.4353 1.74004 39.4353 2.1891V4.15801C39.4354 4.26479 39.4143 4.37054 39.3735 4.4692C39.3326 4.56786 39.2727 4.65751 39.1972 4.73302C39.1217 4.80853 39.0321 4.86842 38.9334 4.90928C38.8347 4.95014 38.729 4.97115 38.6222 4.97113Z" fill="#14C53B"/>
<path d="M8.59562 34.9969H6.62703C6.17765 34.9969 5.8139 34.6328 5.8139 34.1837C5.8139 33.7347 6.17765 33.3706 6.62703 33.3706H8.59562C9.045 33.3706 9.40875 33.7347 9.40875 34.1837C9.40875 34.6328 9.045 34.9969 8.59562 34.9969Z" fill="#14C53B"/>
<path d="M70.6172 34.9969H68.6478C68.1984 34.9969 67.8347 34.6328 67.8347 34.1837C67.8347 33.7347 68.1984 33.3706 68.6478 33.3706H70.6172C71.0665 33.3706 71.4303 33.7347 71.4303 34.1837C71.4303 34.6328 71.0667 34.9969 70.6172 34.9969Z" fill="#14C53B"/>
<path d="M15.4231 57.3827C15.3476 57.3072 15.2877 57.2176 15.2468 57.119C15.2059 57.0203 15.1849 56.9146 15.1849 56.8078C15.1849 56.701 15.2059 56.5953 15.2468 56.4966C15.2877 56.398 15.3476 56.3084 15.4231 56.2329L16.8152 54.8405C16.8906 54.765 16.9803 54.7051 17.0789 54.6642C17.1776 54.6233 17.2833 54.6023 17.3901 54.6023C17.4969 54.6023 17.6026 54.6233 17.7012 54.6642C17.7999 54.7051 17.8895 54.765 17.965 54.8405C18.0405 54.916 18.1004 55.0056 18.1413 55.1043C18.1822 55.2029 18.2032 55.3087 18.2032 55.4155C18.2032 55.5222 18.1822 55.628 18.1413 55.7266C18.1004 55.8253 18.0405 55.9149 17.965 55.9904L16.573 57.3827C16.4975 57.4583 16.4079 57.5182 16.3092 57.5591C16.2106 57.5999 16.1048 57.621 15.998 57.621C15.8913 57.621 15.7855 57.5999 15.6869 57.5591C15.5882 57.5182 15.4986 57.4583 15.4231 57.3827Z" fill="#14C53B"/>
<path d="M59.2786 13.5275C59.2031 13.452 59.1431 13.3624 59.1023 13.2637C59.0614 13.1651 59.0403 13.0594 59.0403 12.9526C59.0403 12.8458 59.0614 12.7401 59.1023 12.6414C59.1431 12.5428 59.2031 12.4531 59.2786 12.3777L60.6706 10.9853C60.7461 10.9098 60.8357 10.8499 60.9344 10.809C61.033 10.7681 61.1388 10.7471 61.2455 10.7471C61.3523 10.7471 61.4581 10.7681 61.5567 10.809C61.6554 10.8499 61.745 10.9098 61.8205 10.9853C61.896 11.0608 61.9559 11.1504 61.9968 11.2491C62.0377 11.3477 62.0587 11.4535 62.0587 11.5602C62.0587 11.667 62.0377 11.7728 61.9968 11.8714C61.9559 11.97 61.896 12.0597 61.8205 12.1352L60.4284 13.5275C60.3529 13.603 60.2633 13.6629 60.1647 13.7038C60.066 13.7446 59.9603 13.7657 59.8535 13.7657C59.7467 13.7657 59.641 13.7446 59.5424 13.7038C59.4437 13.6629 59.3541 13.603 59.2786 13.5275Z" fill="#14C53B"/>
<path d="M16.8152 13.5275L15.4231 12.1352C15.3476 12.0597 15.2877 11.97 15.2468 11.8714C15.2059 11.7728 15.1849 11.667 15.1849 11.5602C15.1849 11.4535 15.2059 11.3477 15.2468 11.2491C15.2877 11.1504 15.3476 11.0608 15.4231 10.9853C15.4986 10.9098 15.5882 10.8499 15.6869 10.809C15.7855 10.7681 15.8913 10.7471 15.998 10.7471C16.1048 10.7471 16.2106 10.7681 16.3092 10.809C16.4079 10.8499 16.4975 10.9098 16.573 10.9853L17.965 12.3777C18.0405 12.4531 18.1004 12.5428 18.1413 12.6414C18.1822 12.7401 18.2032 12.8458 18.2032 12.9526C18.2032 13.0594 18.1822 13.1651 18.1413 13.2637C18.1004 13.3624 18.0405 13.452 17.965 13.5275C17.8895 13.603 17.7999 13.6629 17.7012 13.7038C17.6026 13.7446 17.4968 13.7657 17.3901 13.7657C17.2833 13.7657 17.1776 13.7446 17.0789 13.7038C16.9803 13.6629 16.8906 13.603 16.8152 13.5275Z" fill="#14C53B"/>
<defs>
<linearGradient id="paint0_linear_98_302" x1="66.5202" y1="69.8069" x2="66.5202" y2="49.0351" gradientUnits="userSpaceOnUse">
<stop offset="0.017" stop-color="#CCCCCC"/>
<stop offset="1" stop-color="#F2F2F2"/>
</linearGradient>
<radialGradient id="paint1_radial_98_302" cx="0" cy="0" r="1" gradientUnits="userSpaceOnUse" gradientTransform="translate(66.5202 49.0352) rotate(90) scale(20.7719 11.0405)">
<stop stop-color="#16CC3E"/>
<stop offset="1" stop-color="#049123"/>
</radialGradient>
<linearGradient id="paint2_linear_98_302" x1="48.158" y1="78.6239" x2="48.158" y2="46.0045" gradientUnits="userSpaceOnUse">
<stop offset="0.017" stop-color="#CCCCCC"/>
<stop offset="1" stop-color="#F2F2F2"/>
</linearGradient>
<radialGradient id="paint3_radial_98_302" cx="0" cy="0" r="1" gradientUnits="userSpaceOnUse" gradientTransform="translate(48.158 46.0046) rotate(90) scale(32.6194 30.5528)">
<stop stop-color="#16CC3E"/>
<stop offset="1" stop-color="#049123"/>
</radialGradient>
<linearGradient id="paint4_linear_98_302" x1="38.6224" y1="8.92358" x2="38.6224" y2="58.7851" gradientUnits="userSpaceOnUse">
<stop stop-color="#60FF82"/>
<stop offset="1" stop-color="#343434" stop-opacity="0"/>
</linearGradient>
</defs>
</svg>
