<svg width="80" height="80" viewBox="0 0 80 80" fill="none" xmlns="http://www.w3.org/2000/svg">
<path d="M55.8242 9.52393C48.0151 9.52393 42.761 13.496 40 16.3417C37.239 13.496 31.9849 9.52393 24.1758 9.52393C13.6521 9.52393 5.71429 18.5944 5.71429 30.6228C5.71429 38.9172 9.99491 55.0802 38.6557 70.1489C39.0729 70.3664 39.5365 70.4763 40 70.4763C40.4635 70.4763 40.9271 70.3664 41.3444 70.1489C70.0051 55.0802 74.2857 38.9172 74.2857 30.6228C74.2857 18.5944 66.3478 9.52393 55.8242 9.52393Z" fill="url(#paint0_linear_98_286)"/>
<path d="M77.6562 37.6563H59.7205L55.7197 33.6555C55.4575 33.3923 55.1364 33.1954 54.7829 33.0812C54.4294 32.9669 54.0538 32.9386 53.6872 32.9986C53.3208 33.059 52.9739 33.2052 52.6748 33.4251C52.3757 33.6451 52.1328 33.9327 51.9659 34.2644L49.375 39.4461L46.7841 34.2642C46.3492 33.3922 45.4566 32.868 44.4311 32.9825C43.9549 33.035 43.5062 33.232 43.1453 33.5471C42.7844 33.8621 42.5286 34.2801 42.4123 34.7449L40.4577 42.5611L37.6241 25.5528C37.5358 25.021 37.2667 24.5358 36.8622 24.1793C36.4577 23.8228 35.9427 23.6168 35.4039 23.596C34.4197 23.5182 33.3073 24.2917 33.0373 25.3699L29.888 37.9721L28.0341 34.2642C27.8672 33.9325 27.6243 33.645 27.3252 33.425C27.026 33.205 26.6792 33.0589 26.3128 32.9985C25.5758 32.8725 24.8114 33.1221 24.2803 33.6553L20.2795 37.6563H2.34375C1.04828 37.6563 0 38.7046 0 40C0 41.2955 1.04828 42.3438 2.34375 42.3438H21.25C21.8725 42.3438 22.4677 42.0966 22.907 41.6571L25.2966 39.2699L28.5284 45.7358C28.9633 46.6102 29.8605 47.1274 30.8814 47.0175C31.3576 46.965 31.8063 46.768 32.1672 46.453C32.5281 46.1379 32.7839 45.7199 32.9002 45.2552L34.8548 37.4389L37.6884 54.4472C37.7767 54.9791 38.0458 55.4642 38.4503 55.8207C38.8548 56.1772 39.3698 56.3833 39.9086 56.4041C39.9359 56.4063 39.968 56.4063 40 56.4063C41.0711 56.4063 42.0142 55.6785 42.2752 54.6302L45.4245 42.028L47.2784 45.7358C48.075 47.3242 50.675 47.3242 51.4716 45.7358L54.7034 39.2699L57.093 41.6571C57.3105 41.8748 57.5688 42.0475 57.8531 42.1654C58.1375 42.2832 58.4422 42.3438 58.75 42.3438H77.6562C78.9517 42.3438 80 41.2955 80 40C80 38.7046 78.9517 37.6563 77.6562 37.6563Z" fill="url(#paint1_linear_98_286)"/>
<defs>
<linearGradient id="paint0_linear_98_286" x1="40" y1="70.4763" x2="40" y2="9.52393" gradientUnits="userSpaceOnUse">
<stop stop-color="#5558FF"/>
<stop offset="1" stop-color="#00C0FF"/>
</linearGradient>
<linearGradient id="paint1_linear_98_286" x1="40" y1="56.4063" x2="40" y2="23.5907" gradientUnits="userSpaceOnUse">
<stop stop-color="#ADDCFF"/>
<stop offset="0.503" stop-color="#EAF6FF"/>
<stop offset="1" stop-color="#EAF6FF"/>
</linearGradient>
</defs>
</svg>
