<svg width="295" height="27" viewBox="0 0 295 27" fill="none" xmlns="http://www.w3.org/2000/svg">
<path d="M44.996 23.8312C44.996 25.3903 43.7186 26.6549 42.1446 26.6549H2.85142C1.2774 26.6549 0 25.3888 0 23.8312V2.82448C0 1.26375 1.2774 0 2.85142 0H42.1446C43.7194 0 44.996 1.26375 44.996 2.82448V23.8312Z" fill="#555555"/>
<path d="M19.4713 8.84766L17.9268 17.8258H20.397L21.9423 8.84766H19.4713Z" fill="white"/>
<path d="M15.856 8.85686L13.4367 14.9797L13.1792 14.0556C12.7016 12.9419 11.3468 11.3417 9.75684 10.3339L11.9688 17.8216L14.5826 17.8169L18.473 8.85449L15.856 8.85686Z" fill="white"/>
<path d="M12.2413 9.64665C12.097 9.04321 11.6816 8.86312 11.1641 8.8418H7.33426L7.30237 9.03926C11.1641 11.2058 12.5906 12.81 13.4095 15.1005L12.2413 9.64665Z" fill="white"/>
<path d="M26.9489 10.5685C27.7582 10.5558 28.3435 10.7304 28.798 10.912L29.0213 11.0155L29.3546 9.07012C28.8666 8.88845 28.0987 8.69336 27.1418 8.69336C24.7011 8.69336 22.9811 9.91051 22.9684 11.6561C22.9516 12.9459 24.1939 13.6654 25.1317 14.0959C26.0933 14.5366 26.417 14.8162 26.4122 15.2104C26.4043 15.8106 25.6444 16.0855 24.9339 16.0855C23.9452 16.0855 23.4205 15.9497 22.608 15.6171L22.2898 15.4718L21.9421 17.4804C22.521 17.7323 23.5871 17.948 24.6947 17.9598C27.2917 17.9598 28.979 16.7569 28.9973 14.8913C29.0085 13.8708 28.3491 13.0928 26.921 12.4538C26.0574 12.0376 25.5279 11.7603 25.5335 11.3401C25.5335 10.9673 25.9833 10.5685 26.9489 10.5685Z" fill="white"/>
<path d="M35.6953 8.85742H33.7864C33.194 8.85742 32.753 9.01697 32.4923 9.60303L28.8243 17.8308H31.419C31.419 17.8308 31.8416 16.7251 31.9373 16.4826C32.2204 16.4826 34.7417 16.4857 35.1013 16.4857C35.1747 16.7985 35.4019 17.8308 35.4019 17.8308H37.6936L35.6953 8.85742ZM32.6478 14.6438C32.8519 14.1281 33.6317 12.1345 33.6317 12.1345C33.6182 12.159 33.8335 11.6156 33.9618 11.2775L34.1277 12.0516C34.1277 12.0516 34.6021 14.1952 34.701 14.6438H32.6478Z" fill="white"/>
<path d="M95.0019 24.1769C95.0019 25.7353 93.7253 27.0006 92.1505 27.0006H52.8573C51.2825 27.0006 50.0059 25.7345 50.0059 24.1769V3.1694C50.0059 1.60945 51.2825 0.345703 52.8573 0.345703H92.1505C93.7253 0.345703 95.0019 1.60945 95.0019 3.1694V24.1769Z" fill="#555555"/>
<path d="M68.6749 6.83634L64.5078 16.6817H61.7895L59.7387 8.82279C59.6143 8.3402 59.5066 8.16248 59.1279 7.9587C58.5099 7.62618 57.4885 7.31498 56.5914 7.12147L56.6512 6.83554H61.028C61.5846 6.83554 62.087 7.20282 62.2137 7.83865L63.2966 13.5374L65.971 6.83634H68.6749ZM72.35 6.83634L70.2234 16.6817H67.6519L69.7785 6.83634H72.35ZM79.3263 13.4671C79.3366 10.8693 75.699 10.7255 75.7229 9.56446C75.7317 9.2114 76.0714 8.83543 76.8137 8.73986C77.1813 8.69247 78.1988 8.65535 79.3502 9.18059L79.8007 7.09145C79.1819 6.86951 78.3854 6.65625 77.395 6.65625C74.853 6.65625 73.0637 7.99346 73.0501 9.91041C73.0334 11.329 74.3275 12.1188 75.3003 12.5904C76.3034 13.0729 76.6391 13.3826 76.6343 13.8138C76.6271 14.4741 75.8337 14.7664 75.0962 14.7782C73.802 14.798 73.0525 14.4315 72.4545 14.1558L71.9888 16.3129C72.59 16.5878 73.6992 16.8231 74.8474 16.8358C77.5505 16.8366 79.3175 15.5136 79.3263 13.4671ZM86.0386 16.6817H88.4164L86.3392 6.83634H84.1456C83.6512 6.83634 83.235 7.12068 83.0508 7.55746L79.1923 16.6817H81.893L82.4281 15.2111H85.7276L86.0386 16.6817ZM83.168 13.1938L84.5228 9.49574L85.301 13.1938H83.168ZM75.6416 19.3925H74.597V20.3561H75.7652V20.646H74.2446V17.9731H75.7054V18.2614H74.597V19.1058H75.6416V19.3925ZM76.305 17.8302H76.6566V20.6452H76.305V17.8302ZM77.5449 19.7487C77.5529 20.2218 77.8535 20.4161 78.2091 20.4161C78.4611 20.4161 78.6182 20.3719 78.7458 20.3166L78.8096 20.5646C78.6852 20.6199 78.4691 20.6878 78.1613 20.6878C77.5648 20.6878 77.2092 20.2961 77.2092 19.7171C77.2092 19.1382 77.5537 18.6848 78.1174 18.6848C78.7537 18.6848 78.918 19.2314 78.918 19.586C78.918 19.6571 78.914 19.7076 78.9052 19.7479H77.5449V19.7487ZM78.5783 19.4991C78.5823 19.2819 78.4858 18.936 78.0903 18.936C77.7299 18.936 77.5776 19.2566 77.5497 19.4991H78.5783ZM80.8349 20.578C80.7424 20.6223 80.5383 20.6902 80.2783 20.6902C79.6939 20.6902 79.3143 20.2969 79.3143 19.7108C79.3143 19.12 79.7218 18.6879 80.3549 18.6879C80.563 18.6879 80.7472 18.7385 80.8429 18.7898L80.7631 19.0568C80.6786 19.0118 80.5463 18.9652 80.3549 18.9652C79.9099 18.9652 79.6707 19.2946 79.6707 19.6911C79.6707 20.1357 79.9586 20.4082 80.3429 20.4082C80.5423 20.4082 80.6754 20.3616 80.7751 20.3182L80.8349 20.578ZM81.8228 18.2662V18.7259H82.3268V18.9912H81.8228V20.0275C81.8228 20.2645 81.8906 20.4003 82.0868 20.4003C82.1825 20.4003 82.2391 20.3924 82.2909 20.3774L82.3069 20.6436C82.2391 20.6657 82.1306 20.691 81.9943 20.691C81.83 20.691 81.6977 20.6357 81.6139 20.5433C81.5175 20.4359 81.4784 20.2645 81.4784 20.0394V18.9912H81.1778V18.7259H81.4784V18.3689L81.8228 18.2662ZM82.8188 19.3254C82.8188 19.0987 82.814 18.9052 82.8028 18.7259H83.1106L83.1266 19.1058H83.1385C83.227 18.8491 83.4431 18.6856 83.6791 18.6856C83.715 18.6856 83.7429 18.6903 83.7748 18.6935V19.0236C83.7389 19.0142 83.7031 19.0142 83.6544 19.0142C83.4064 19.0142 83.231 19.1966 83.1824 19.4588C83.1744 19.5078 83.1704 19.5655 83.1704 19.6215V20.6452H82.8188V19.3254ZM85.9405 19.6705C85.9405 20.379 85.4406 20.6886 84.9757 20.6886C84.455 20.6886 84.0467 20.3079 84.0467 19.7013C84.0467 19.0623 84.4757 18.6864 85.0076 18.6864C85.5641 18.6864 85.9405 19.0868 85.9405 19.6705ZM84.4071 19.6895C84.4071 20.1097 84.648 20.428 84.9916 20.428C85.3273 20.428 85.5801 20.1152 85.5801 19.6832C85.5801 19.3585 85.4158 18.9486 84.9996 18.9486C84.5882 18.9486 84.4071 19.3301 84.4071 19.6895ZM86.4803 19.2448C86.4803 19.0426 86.4763 18.8854 86.4644 18.7267H86.777L86.7969 19.0426H86.8049C86.9013 18.8641 87.1254 18.6864 87.4452 18.6864C87.7131 18.6864 88.1293 18.8451 88.1293 19.5039V20.6452H87.7777V19.5394C87.7777 19.229 87.6612 18.9715 87.3287 18.9715C87.1007 18.9715 86.9205 19.1342 86.8567 19.3293C86.8407 19.3727 86.8328 19.4312 86.8328 19.4904V20.6452H86.4811L86.4803 19.2448Z" fill="white"/>
<path d="M145.027 23.9524C145.027 25.5147 143.751 26.7784 142.175 26.7784H102.864C101.288 26.7784 100.011 25.5131 100.011 23.9524V2.93855C100.011 1.37703 101.289 0.113281 102.864 0.113281H142.175C143.751 0.113281 145.027 1.37782 145.027 2.93855V23.9524Z" fill="#555555"/>
<path d="M113.188 24.2478V22.7961C113.188 22.2376 112.847 21.8751 112.26 21.8751C111.966 21.8751 111.648 21.9723 111.428 22.2866C111.257 22.0204 111.013 21.8751 110.647 21.8751C110.402 21.8751 110.158 21.9478 109.962 22.2147V21.9249H109.449V24.2478H109.962V22.9643C109.962 22.5528 110.183 22.3593 110.525 22.3593C110.867 22.3593 111.038 22.5765 111.038 22.9643V24.2478H111.552V22.9643C111.552 22.5528 111.796 22.3593 112.114 22.3593C112.457 22.3593 112.627 22.5765 112.627 22.9643V24.2478H113.188ZM120.788 21.9241H119.957V21.2219H119.443V21.9241H118.978V22.383H119.443V23.4493C119.443 23.9824 119.663 24.2952 120.249 24.2952C120.469 24.2952 120.714 24.2225 120.884 24.1262L120.738 23.6902C120.591 23.7857 120.42 23.8102 120.298 23.8102C120.053 23.8102 119.956 23.6657 119.956 23.4232V22.383H120.787L120.788 21.9241ZM125.137 21.8751C124.844 21.8751 124.649 22.0212 124.527 22.2147V21.9249H124.013V24.2478H124.527V22.9414C124.527 22.5536 124.698 22.3348 125.015 22.3348C125.113 22.3348 125.235 22.3601 125.333 22.3846L125.479 21.9004C125.382 21.8751 125.235 21.8751 125.137 21.8751ZM118.564 22.1168C118.32 21.947 117.978 21.8743 117.611 21.8743C117.025 21.8743 116.634 22.1642 116.634 22.6231C116.634 23.0109 116.928 23.2289 117.44 23.3008L117.684 23.3253C117.953 23.3742 118.1 23.4453 118.1 23.5662C118.1 23.7368 117.904 23.8576 117.562 23.8576C117.22 23.8576 116.951 23.7368 116.78 23.6151L116.536 24.0022C116.804 24.1957 117.172 24.292 117.538 24.292C118.222 24.292 118.613 23.9792 118.613 23.5425C118.613 23.131 118.295 22.9145 117.806 22.8403L117.562 22.8158C117.343 22.7929 117.172 22.7439 117.172 22.5986C117.172 22.4288 117.343 22.3316 117.611 22.3316C117.904 22.3316 118.198 22.4525 118.344 22.5267L118.564 22.1168ZM132.2 21.8751C131.906 21.8751 131.711 22.0212 131.59 22.2147V21.9249H131.076V24.2478H131.59V22.9414C131.59 22.5536 131.76 22.3348 132.078 22.3348C132.175 22.3348 132.297 22.3601 132.394 22.3846L132.543 21.9004C132.444 21.8751 132.297 21.8751 132.2 21.8751ZM125.65 23.0851C125.65 23.7865 126.139 24.2944 126.897 24.2944C127.239 24.2944 127.483 24.2209 127.726 24.029L127.483 23.6167C127.287 23.7636 127.093 23.8355 126.872 23.8355C126.456 23.8355 126.164 23.544 126.164 23.0851C126.164 22.6484 126.457 22.3593 126.872 22.3348C127.092 22.3348 127.288 22.4075 127.483 22.552L127.726 22.1413C127.483 21.9454 127.239 21.8727 126.897 21.8727C126.14 21.8751 125.65 22.383 125.65 23.0851ZM130.391 23.0851V21.9225H129.878V22.2124C129.707 21.9952 129.462 21.8727 129.146 21.8727C128.486 21.8727 127.973 22.3806 127.973 23.0836C127.973 23.7842 128.485 24.2928 129.146 24.2928C129.488 24.2928 129.731 24.172 129.878 23.9532V24.2446H130.391V23.0851ZM128.51 23.0851C128.51 22.6728 128.78 22.3348 129.218 22.3348C129.634 22.3348 129.927 22.6484 129.927 23.0851C129.927 23.4967 129.634 23.8355 129.218 23.8355C128.78 23.811 128.51 23.4959 128.51 23.0851ZM122.377 21.8751C121.693 21.8751 121.204 22.3593 121.204 23.0851C121.204 23.811 121.693 24.2952 122.402 24.2952C122.744 24.2952 123.086 24.1988 123.354 23.9808L123.11 23.6183C122.914 23.7636 122.67 23.8608 122.426 23.8608C122.107 23.8608 121.79 23.7154 121.716 23.3047H123.452V23.112C123.476 22.3593 123.035 21.8751 122.377 21.8751ZM122.377 22.3111C122.694 22.3111 122.914 22.5038 122.964 22.8664H121.741C121.791 22.5528 122.01 22.3111 122.377 22.3111ZM135.107 23.0851V21.0039H134.595V22.2124C134.424 21.9959 134.179 21.8743 133.861 21.8743C133.201 21.8743 132.689 22.3822 132.689 23.0844C132.689 23.7857 133.201 24.2936 133.861 24.2936C134.203 24.2936 134.448 24.1728 134.595 23.9548V24.2462H135.107V23.0851ZM133.226 23.0851C133.226 22.6728 133.495 22.3348 133.935 22.3348C134.35 22.3348 134.644 22.6484 134.644 23.0851C134.644 23.4967 134.349 23.8355 133.935 23.8355C133.495 23.811 133.226 23.4959 133.226 23.0851ZM116.072 23.0851V21.9225H115.558V22.2124C115.388 21.9952 115.143 21.8727 114.826 21.8727C114.167 21.8727 113.654 22.3806 113.654 23.0836C113.654 23.7842 114.167 24.2928 114.826 24.2928C115.168 24.2928 115.413 24.172 115.558 23.9532V24.2446H116.072V23.0851ZM114.166 23.0851C114.166 22.6728 114.434 22.3348 114.874 22.3348C115.29 22.3348 115.583 22.6484 115.583 23.0851C115.583 23.4967 115.29 23.8355 114.874 23.8355C114.435 23.811 114.166 23.4959 114.166 23.0851Z" fill="white"/>
<path d="M126.091 4.27832H118.394V17.9782H126.091V4.27832Z" fill="#ABABAB"/>
<path d="M118.882 11.1276C118.882 8.34421 120.202 5.87516 122.23 4.2781C120.739 3.11623 118.858 2.41406 116.805 2.41406C111.943 2.41406 108.008 6.31115 108.008 11.1276C108.008 15.9441 111.943 19.8412 116.805 19.8412C118.858 19.8412 120.739 19.139 122.23 17.9779C120.202 16.4038 118.882 13.911 118.882 11.1276Z" fill="white"/>
<path d="M136.476 11.1278C136.476 15.9443 132.542 19.8414 127.679 19.8414C125.625 19.8414 123.745 19.1392 122.254 17.9781C124.306 16.3819 125.602 13.912 125.602 11.1286C125.602 8.34519 124.283 5.87614 122.254 4.27907C123.745 3.11721 125.625 2.41504 127.679 2.41504C132.543 2.41425 136.476 6.33504 136.476 11.1278Z" fill="#323232"/>
<path d="M195.054 23.9524C195.054 25.5147 193.776 26.7784 192.201 26.7784H152.89C151.314 26.7784 150.037 25.5131 150.037 23.9524V2.93855C150.037 1.37703 151.315 0.113281 152.89 0.113281H192.201C193.776 0.113281 195.054 1.37782 195.054 2.93855V23.9524Z" fill="#555555"/>
<path d="M176.327 18.4507H168.416V4.36621H176.327V18.4507Z" fill="#ABABAB"/>
<path d="M168.918 11.4088C168.918 8.55193 170.268 6.00705 172.371 4.36654C170.834 3.16756 168.893 2.45117 166.784 2.45117C161.791 2.45117 157.743 6.46121 157.743 11.408C157.743 16.3556 161.791 20.3648 166.784 20.3648C168.893 20.3648 170.834 19.6477 172.371 18.4503C170.269 16.8113 168.918 14.2649 168.918 11.4088Z" fill="white"/>
<path d="M187.002 11.4084C187.002 16.3552 182.953 20.3645 177.961 20.3645C175.852 20.3645 173.911 19.6473 172.372 18.4499C174.476 16.8102 175.826 14.2637 175.826 11.4068C175.826 8.54998 174.478 6.0051 172.372 4.36459C173.911 3.16561 175.852 2.44922 177.961 2.44922C182.952 2.4508 187.002 6.46163 187.002 11.4084Z" fill="#323232"/>
<path d="M179.004 22.4287C179.11 22.4287 179.26 22.4492 179.376 22.4934L179.215 22.9808C179.104 22.935 178.994 22.9215 178.888 22.9215C178.547 22.9215 178.375 23.1411 178.375 23.5321V24.8661H177.854V22.4871H178.37V22.7754C178.506 22.5685 178.702 22.4287 179.004 22.4287ZM177.073 22.9618H176.221V24.0352C176.221 24.2761 176.305 24.4349 176.568 24.4349C176.703 24.4349 176.875 24.3883 177.03 24.299L177.18 24.7421C177.014 24.8574 176.753 24.927 176.527 24.927C175.909 24.927 175.693 24.5976 175.693 24.0463V22.9618H175.206V22.4887H175.693V21.7676H176.221V22.4887H177.073V22.9618ZM170.39 23.4697C170.445 23.1245 170.656 22.8923 171.027 22.8923C171.363 22.8923 171.581 23.1024 171.635 23.4697H170.39ZM172.177 23.6766C172.172 22.9358 171.71 22.4287 171.037 22.4287C170.335 22.4287 169.842 22.9373 169.842 23.6766C169.842 24.4341 170.354 24.9262 171.071 24.9262C171.433 24.9262 171.764 24.8377 172.055 24.5929L171.8 24.2098C171.599 24.3677 171.343 24.4578 171.102 24.4578C170.766 24.4578 170.459 24.3038 170.385 23.8773H172.167C172.172 23.8109 172.177 23.7485 172.177 23.6766ZM174.471 23.0961C174.326 23.0068 174.031 22.8923 173.724 22.8923C173.438 22.8923 173.267 22.9974 173.267 23.1719C173.267 23.3291 173.448 23.3749 173.674 23.4057L173.92 23.4405C174.442 23.5147 174.758 23.7343 174.758 24.1513C174.758 24.6031 174.357 24.927 173.664 24.927C173.272 24.927 172.912 24.8266 172.623 24.6165L172.87 24.2137C173.047 24.348 173.309 24.4617 173.669 24.4617C174.025 24.4617 174.217 24.3575 174.217 24.175C174.217 24.0384 174.081 23.9641 173.795 23.9254L173.548 23.893C173.011 23.8172 172.718 23.5787 172.718 23.1909C172.718 22.717 173.112 22.4279 173.718 22.4279C174.1 22.4279 174.447 22.5116 174.698 22.6767L174.471 23.0961ZM180.913 22.9207C180.806 22.9207 180.706 22.9381 180.614 22.976C180.522 23.014 180.442 23.0661 180.374 23.1324C180.307 23.1988 180.255 23.2809 180.216 23.3749C180.177 23.4705 180.159 23.5732 180.159 23.6869C180.159 23.8006 180.177 23.9009 180.216 23.9965C180.254 24.0913 180.307 24.1727 180.374 24.2398C180.442 24.3069 180.522 24.3591 180.614 24.3962C180.706 24.4349 180.806 24.4523 180.913 24.4523C181.022 24.4523 181.121 24.4349 181.212 24.3962C181.306 24.3591 181.386 24.3069 181.453 24.2398C181.522 24.1727 181.574 24.0913 181.615 23.9965C181.653 23.9025 181.671 23.8006 181.671 23.6869C181.671 23.5732 181.653 23.4721 181.615 23.3749C181.575 23.2817 181.522 23.1988 181.453 23.1324C181.386 23.0661 181.306 23.014 181.212 22.976C181.121 22.9397 181.022 22.9207 180.913 22.9207ZM180.913 22.4287C181.1 22.4287 181.272 22.4603 181.431 22.525C181.588 22.589 181.727 22.6775 181.843 22.7896C181.959 22.9018 182.05 23.0361 182.115 23.1885C182.18 23.3394 182.213 23.506 182.213 23.6869C182.213 23.8662 182.18 24.0329 182.115 24.1853C182.05 24.3369 181.959 24.472 181.843 24.5834C181.727 24.6963 181.59 24.784 181.431 24.8488C181.272 24.9119 181.1 24.9443 180.913 24.9443C180.728 24.9443 180.556 24.9119 180.397 24.8488C180.239 24.784 180.102 24.6963 179.986 24.5834C179.871 24.472 179.781 24.3369 179.716 24.1853C179.65 24.0329 179.618 23.8662 179.618 23.6869C179.618 23.506 179.651 23.3409 179.716 23.1885C179.782 23.0361 179.872 22.9018 179.986 22.7896C180.102 22.6775 180.238 22.589 180.397 22.525C180.556 22.4603 180.727 22.4287 180.913 22.4287ZM167.336 23.6766C167.336 23.2596 167.614 22.9168 168.065 22.9168C168.497 22.9168 168.788 23.2446 168.788 23.6766C168.788 24.1126 168.497 24.4396 168.065 24.4396C167.614 24.4396 167.336 24.0976 167.336 23.6766ZM169.28 23.6766V22.4887H168.759V22.7778C168.594 22.5637 168.343 22.4287 168.001 22.4287C167.327 22.4287 166.8 22.9508 166.8 23.6766C166.8 24.4041 167.327 24.927 168.001 24.927C168.343 24.927 168.592 24.7919 168.759 24.5802V24.8669H169.28V23.6766ZM166.338 24.8669V23.3741C166.338 22.8118 165.975 22.4358 165.393 22.4295C165.087 22.4247 164.771 22.5195 164.548 22.8536C164.383 22.589 164.122 22.4295 163.755 22.4295C163.499 22.4295 163.247 22.5053 163.051 22.7833V22.4895H162.53V24.8685H163.056V23.5487C163.056 23.1364 163.288 22.9176 163.643 22.9176C163.991 22.9176 164.166 23.1419 164.166 23.5439V24.8685H164.693V23.5487C164.693 23.1364 164.935 22.9176 165.279 22.9176C165.637 22.9176 165.807 23.1419 165.807 23.5439V24.8685H166.336V24.8669H166.338Z" fill="white"/>
<path d="M245.052 23.8423C245.052 25.403 243.777 26.6667 242.203 26.6667H202.913C201.34 26.6667 200.064 25.4006 200.064 23.8423V2.8403C200.064 1.28035 201.341 0.0166016 202.913 0.0166016H242.201C243.777 0.0166016 245.052 1.28035 245.052 2.8403V23.8423Z" fill="#555555"/>
<path d="M218.649 14.3436L216.743 19.4294L216.541 18.3955C216.065 17.1286 215.038 15.7977 213.842 15.2575L215.585 21.7918L217.646 21.7887L220.711 14.3389H218.649V14.3436Z" fill="white"/>
<path d="M220.283 21.802L221.501 14.334H223.445L222.229 21.802H220.283Z" fill="white"/>
<path d="M229.29 14.5179C228.904 14.3686 228.298 14.2051 227.545 14.2051C225.619 14.2051 224.267 15.2184 224.254 16.6678C224.242 17.742 225.221 18.3415 225.958 18.6977C226.719 19.0634 226.972 19.2972 226.972 19.6234C226.961 20.125 226.362 20.3524 225.803 20.3524C225.025 20.3524 224.612 20.2395 223.973 19.9615L223.721 19.8438L223.448 21.5159C223.904 21.7244 224.744 21.9029 225.62 21.9124C227.664 21.9124 228.992 20.9101 229.008 19.362C229.018 18.5097 228.496 17.8644 227.372 17.3337C226.692 16.9877 226.273 16.7579 226.281 16.4056C226.281 16.0944 226.631 15.7634 227.394 15.7634C228.033 15.754 228.491 15.8993 228.852 16.0517L229.027 16.137L229.29 14.5179Z" fill="white"/>
<path d="M234.28 14.3438H232.777C232.311 14.3438 231.961 14.4733 231.756 14.9622L228.867 21.8038H230.911C230.911 21.8038 231.244 20.8813 231.321 20.6807C231.544 20.6807 233.531 20.6854 233.813 20.6854C233.872 20.9461 234.05 21.8038 234.05 21.8038H235.858L234.28 14.3438ZM231.88 19.1531C232.043 18.7242 232.656 17.0648 232.656 17.0648C232.643 17.0853 232.815 16.6319 232.916 16.3547L233.045 16.9976C233.045 16.9976 233.419 18.7795 233.496 19.1531C233.192 19.1531 232.26 19.1531 231.88 19.1531Z" fill="white"/>
<path d="M214.976 14.3379H211.838L211.819 14.4658C214.262 15.0843 215.87 16.6008 216.541 18.3985L215.86 14.969C215.741 14.4951 215.401 14.3553 214.976 14.3379Z" fill="#323232"/>
<path d="M205.95 12.5336H204.708L203.277 6.13977L204.65 5.91309L205.629 10.9167L208.124 5.97943H209.441L205.95 12.5336Z" fill="white"/>
<path d="M212.404 10.4428H209.445C209.362 11.3313 209.781 11.7191 210.487 11.7191C211.079 11.7191 211.601 11.5011 212.162 11.1512L212.157 12.0398C211.609 12.381 210.972 12.5982 210.228 12.5982C208.94 12.5982 208.087 11.8708 208.344 10.2248C208.575 8.73985 209.611 7.8418 210.815 7.8418C212.198 7.8418 212.659 8.87333 212.459 10.1687C212.443 10.2627 212.414 10.3756 212.404 10.4428ZM210.662 8.6269C210.204 8.6269 209.776 8.98628 209.574 9.73268H211.409C211.44 9.02419 211.215 8.6269 210.662 8.6269Z" fill="white"/>
<path d="M214.334 9.8855L213.927 12.5054H212.78L213.491 7.93774H214.464L214.466 8.85475C214.853 8.32555 215.38 7.88087 216.103 7.84375L216.11 8.96928C215.385 9.01588 214.735 9.39421 214.334 9.8855Z" fill="white"/>
<path d="M216.095 12.5039L216.804 7.93621H217.95L217.24 12.5039H216.095ZM217.507 7.17085C217.125 7.17085 216.859 6.90625 216.919 6.52791C216.978 6.14089 217.327 5.86523 217.71 5.86523C218.082 5.86523 218.344 6.14089 218.285 6.52791C218.224 6.90625 217.877 7.17085 217.507 7.17085Z" fill="white"/>
<path d="M221.122 6.68821C220.732 6.68821 220.495 6.85802 220.433 7.26558L220.327 7.93695H221.205V8.86344H220.185L219.618 12.5046H218.481L219.048 8.86344H218.38L218.523 7.93695H219.193L219.314 7.15184C219.47 6.14005 220.18 5.76172 221.124 5.76172C221.326 5.76172 221.474 5.78067 221.587 5.79963L221.595 6.72612C221.483 6.70795 221.314 6.68821 221.122 6.68821Z" fill="white"/>
<path d="M221.135 12.5039L221.845 7.93621H222.992L222.281 12.5039H221.135ZM222.545 7.17085C222.164 7.17085 221.898 6.90625 221.96 6.52791C222.019 6.14089 222.368 5.86523 222.749 5.86523C223.122 5.86523 223.385 6.14089 223.326 6.52791C223.267 6.90625 222.92 7.17085 222.545 7.17085Z" fill="white"/>
<path d="M227.432 10.4428H224.475C224.392 11.3313 224.809 11.7191 225.516 11.7191C226.108 11.7191 226.63 11.5011 227.191 11.1512L227.187 12.0398C226.637 12.381 226.002 12.5982 225.255 12.5982C223.967 12.5982 223.115 11.8708 223.373 10.2248C223.603 8.73985 224.64 7.8418 225.844 7.8418C227.227 7.8418 227.688 8.87333 227.488 10.1687C227.471 10.2627 227.444 10.3756 227.432 10.4428ZM225.69 8.6269C225.232 8.6269 224.804 8.98628 224.603 9.73268H226.438C226.468 9.02419 226.246 8.6269 225.69 8.6269Z" fill="white"/>
<path d="M230.826 12.504L230.831 11.8705C230.446 12.2583 229.945 12.5988 229.303 12.5988C228.339 12.5988 227.675 11.8903 227.915 10.3477C228.18 8.6456 229.244 7.88893 230.312 7.88893C230.752 7.88893 231.093 7.96396 231.356 8.05874L231.699 5.85508L232.874 5.67578L231.813 12.5048L230.826 12.504ZM231.209 8.9955C230.945 8.86359 230.736 8.79646 230.343 8.79646C229.742 8.79646 229.229 9.27905 229.072 10.2814C228.932 11.1699 229.25 11.5862 229.754 11.5862C230.176 11.5862 230.537 11.3398 230.902 10.963L231.209 8.9955Z" fill="white"/>
<path d="M235.32 12.5493C234.778 12.5493 234.335 12.4632 233.923 12.3195L234.677 7.46984L235.564 7.33398L235.241 9.4326C235.499 9.20354 235.859 8.97449 236.301 8.97449C237.038 8.97449 237.533 9.5179 237.354 10.6806C237.155 11.953 236.363 12.5493 235.32 12.5493ZM235.961 9.73274C235.671 9.73274 235.379 9.92546 235.124 10.1837L234.878 11.7524C235.049 11.8171 235.167 11.8456 235.414 11.8456C235.962 11.8456 236.347 11.5154 236.469 10.7279C236.574 10.0621 236.35 9.73274 235.961 9.73274Z" fill="white"/>
<path d="M239.398 12.6906C238.955 13.5436 238.517 13.8075 237.844 13.8075C237.691 13.8075 237.607 13.794 237.529 13.7727L237.525 13.0634C237.636 13.0919 237.754 13.1132 237.921 13.1132C238.173 13.1132 238.396 12.9987 238.54 12.7491L238.656 12.5192L237.921 9.10946L238.843 8.99414L239.269 11.4585L240.425 9.04469H241.286L239.398 12.6906Z" fill="white"/>
<path d="M295 23.9619C295 25.5202 293.724 26.7832 292.153 26.7832H252.91C251.337 26.7832 250.062 25.5187 250.062 23.9619V2.98362C250.062 1.42526 251.338 0.163086 252.91 0.163086H292.153C293.727 0.163086 295 1.42526 295 2.98362V23.9619Z" fill="#555555"/>
<path d="M290.46 11.784C290.46 11.3678 290.792 11.0273 291.19 11.0273C291.6 11.0273 291.921 11.367 291.921 11.784C291.921 12.2011 291.6 12.5407 291.19 12.5407C290.792 12.5517 290.46 12.2105 290.46 11.784ZM291.192 12.3756C291.502 12.3756 291.745 12.1126 291.745 11.7951C291.745 11.4776 291.489 11.2137 291.192 11.2137C290.882 11.2137 290.638 11.4768 290.638 11.7951C290.636 12.1134 290.883 12.3756 291.192 12.3756ZM291.091 12.1244H290.938V11.4546H291.214C291.27 11.4546 291.337 11.4546 291.381 11.4878C291.434 11.521 291.458 11.5866 291.458 11.6521C291.458 11.7295 291.414 11.7943 291.348 11.8164L291.468 12.1126H291.303L291.203 11.8496H291.091V12.1244ZM291.091 11.7516H291.179C291.214 11.7516 291.246 11.7516 291.266 11.7398C291.288 11.7295 291.3 11.6963 291.3 11.6632C291.3 11.6411 291.288 11.6087 291.266 11.5976C291.246 11.5866 291.201 11.5866 291.179 11.5866H291.101L291.091 11.7516Z" fill="#929292"/>
<path d="M280.002 6.7301L279.803 8.02387C279.372 7.79323 279.053 7.70635 278.708 7.70635C277.8 7.70635 277.159 8.62652 277.159 9.93134C277.159 10.8302 277.592 11.3775 278.301 11.3775C278.6 11.3775 278.93 11.2796 279.341 11.0711L279.129 12.4304C278.676 12.5623 278.388 12.6058 278.047 12.6058C276.73 12.6058 275.91 11.6192 275.91 10.0403C275.91 7.91408 277.038 6.42285 278.665 6.42285C278.874 6.42285 279.064 6.44497 279.218 6.48841L279.729 6.61952C279.859 6.6756 279.893 6.68587 280.002 6.7301Z" fill="#929292"/>
<path d="M275.942 7.6175C275.909 7.60645 275.862 7.60645 275.819 7.60645C275.422 7.60645 275.19 7.81496 274.813 8.39629L274.924 7.66173H273.816L273.066 12.4964H274.293C274.736 9.53682 274.846 9.03211 275.433 9.03211C275.468 9.03211 275.477 9.03211 275.522 9.03211C275.633 8.45079 275.775 8.02348 275.986 7.62856L275.942 7.6175Z" fill="#929292"/>
<path d="M268.627 12.4297C268.293 12.5402 268.029 12.5947 267.751 12.5947C267.132 12.5947 266.789 12.2219 266.789 11.5308C266.789 11.3997 266.802 11.2465 266.823 11.0932L266.901 10.6217L266.955 10.2378L267.487 6.93945H268.703L268.559 7.65189H269.19L269.013 8.82402H268.394L268.072 10.8413C268.061 10.9297 268.052 10.9945 268.052 11.0387C268.052 11.2915 268.183 11.4005 268.47 11.4005C268.616 11.4005 268.715 11.3886 268.802 11.3571L268.627 12.4297Z" fill="#929292"/>
<path d="M263.803 9.18613C263.803 9.79984 264.089 10.2161 264.731 10.5344C265.218 10.7753 265.309 10.8519 265.309 11.0715C265.309 11.3677 265.086 11.5106 264.611 11.5106C264.245 11.5106 263.913 11.4554 263.515 11.3132L263.35 12.4308L263.404 12.4419L263.625 12.4853C263.703 12.4972 263.803 12.5185 263.945 12.5295C264.233 12.5509 264.465 12.5738 264.618 12.5738C265.903 12.5738 266.501 12.0588 266.501 10.9617C266.501 10.3038 266.258 9.90884 265.638 9.61344C265.129 9.37175 265.073 9.31725 265.073 9.08661C265.073 8.82359 265.272 8.69248 265.672 8.69248C265.916 8.69248 266.236 8.72565 266.546 8.76909L266.723 7.65146C266.404 7.59618 265.928 7.55273 265.649 7.55273C264.267 7.55273 263.791 8.2865 263.803 9.18613Z" fill="#929292"/>
<path d="M289.752 12.4847H288.591L288.646 12.0139C288.314 12.3867 287.961 12.551 287.517 12.551C286.621 12.551 286.034 11.7517 286.034 10.5448C286.034 8.93354 286.941 7.57422 288.026 7.57422C288.503 7.57422 288.856 7.78353 289.201 8.23216L289.465 6.5332H290.673L289.752 12.4847ZM287.948 11.356C288.525 11.356 288.922 10.687 288.922 9.72259C288.922 9.10888 288.69 8.76846 288.269 8.76846C287.717 8.76846 287.32 9.44852 287.32 10.39C287.319 11.0266 287.528 11.356 287.948 11.356Z" fill="#929292"/>
<path d="M272.499 12.386C272.08 12.5172 271.682 12.5835 271.239 12.5835C269.878 12.5835 269.159 11.8371 269.159 10.4122C269.159 8.74645 270.065 7.5293 271.294 7.5293C272.304 7.5293 272.943 8.22041 272.943 9.29381C272.943 9.64529 272.898 9.99598 272.788 10.4896H270.353C270.342 10.5662 270.342 10.5986 270.342 10.6429C270.342 11.2131 270.708 11.4983 271.415 11.4983C271.848 11.4983 272.245 11.3995 272.69 11.1918L272.499 12.386ZM271.814 9.50312C271.827 9.40439 271.827 9.3175 271.827 9.26222C271.827 8.86729 271.615 8.63745 271.25 8.63745C270.863 8.63745 270.585 8.94391 270.476 9.50312H271.814Z" fill="#929292"/>
<path d="M258.889 12.4844H257.671L258.369 7.91353L256.796 12.4844H255.967L255.867 7.94671L255.126 12.4844H253.986L254.937 6.54395H256.698L256.741 10.227L257.937 6.54395H259.841L258.889 12.4844Z" fill="#929292"/>
<path d="M262.043 10.3373C261.909 10.3254 261.855 10.3151 261.767 10.3151C261.069 10.3151 260.723 10.5663 260.723 11.0489C260.723 11.3451 260.904 11.5426 261.169 11.5426C261.656 11.5426 262.021 11.0489 262.043 10.3373ZM262.927 12.4848H261.909L261.931 11.9809C261.622 12.3861 261.213 12.5615 260.649 12.5615C259.986 12.5615 259.531 12.0236 259.531 11.2456C259.531 10.0616 260.329 9.38233 261.679 9.38233C261.822 9.38233 261.998 9.3926 262.177 9.4155C262.21 9.25122 262.221 9.18566 262.221 9.09878C262.221 8.78047 262.01 8.65962 261.436 8.65962C261.092 8.65962 260.695 8.71491 260.42 8.80258L260.264 8.85787L260.153 8.89026L260.32 7.80501C260.929 7.61782 261.338 7.54199 261.781 7.54199C262.832 7.54199 263.385 8.03564 263.385 8.95581C263.385 9.19672 263.363 9.37206 263.285 9.92021L263.042 11.6405L262.995 11.947L262.964 12.1879L262.941 12.3632L262.927 12.4848Z" fill="#929292"/>
<path d="M282.115 10.3368C281.994 10.3249 281.928 10.3147 281.839 10.3147C281.143 10.3147 280.788 10.5658 280.788 11.0484C280.788 11.3446 280.966 11.5421 281.232 11.5421C281.729 11.5421 282.094 11.0484 282.115 10.3368ZM283.002 12.4844H281.984L282.005 11.9804C281.695 12.3856 281.287 12.561 280.724 12.561C280.057 12.561 279.604 12.0231 279.604 11.2451C279.604 10.0611 280.402 9.38186 281.751 9.38186C281.885 9.38186 282.074 9.39212 282.251 9.41503C282.284 9.25074 282.294 9.18518 282.294 9.0983C282.294 8.77999 282.083 8.65915 281.509 8.65915C281.165 8.65915 280.768 8.71444 280.492 8.80211L280.315 8.84634L280.204 8.87951L280.369 7.79427C280.978 7.60786 281.387 7.53125 281.83 7.53125C282.881 7.53125 283.436 8.0249 283.436 8.94507C283.436 9.18597 283.412 9.36132 283.334 9.90947L283.081 11.6195L283.046 11.9259L283.014 12.1676L282.991 12.3319L283.002 12.4844Z" fill="#929292"/>
<path d="M286.422 7.6175C286.389 7.60645 286.344 7.60645 286.299 7.60645C285.902 7.60645 285.67 7.81496 285.293 8.39629L285.404 7.66173H284.298L283.546 12.4964H284.775C285.214 9.53682 285.327 9.03211 285.913 9.03211C285.948 9.03211 285.948 9.03211 286.002 9.03211C286.111 8.45079 286.267 8.02348 286.466 7.62856L286.422 7.6175Z" fill="#929292"/>
<path d="M281.287 17.1876C281.287 18.2847 280.942 18.9308 280.401 18.9308C280.002 18.9418 279.77 18.5034 279.77 17.8581C279.77 17.0912 280.123 16.2153 280.68 16.2153C281.133 16.2121 281.287 16.6821 281.287 17.1876ZM282.492 17.1994C282.492 15.9823 281.885 15.0273 280.744 15.0273C279.428 15.0273 278.577 16.1774 278.577 17.8779C278.577 19.0935 279.087 20.0926 280.323 20.0926C281.575 20.0926 282.492 19.2143 282.492 17.1994Z" fill="white"/>
<path d="M278.963 14.1842L278.777 15.478C278.364 15.2489 278.079 15.1604 277.759 15.1604C276.907 15.1604 276.309 16.083 276.309 17.3854C276.309 18.2851 276.708 18.8316 277.371 18.8316C277.659 18.8316 277.967 18.7337 278.346 18.5244L278.147 19.8845C277.727 20.0156 277.449 20.0614 277.127 20.0614C275.9 20.0614 275.124 19.0733 275.124 17.496C275.124 15.369 276.188 13.877 277.703 13.877C277.901 13.877 278.067 13.8983 278.214 13.9433L278.676 14.0752C278.829 14.1202 278.862 14.1297 278.963 14.1842Z" fill="white"/>
<path d="M271.404 15.0619C271.371 15.0469 271.326 15.0469 271.284 15.0469C270.906 15.0469 270.696 15.2578 270.34 15.8375L270.451 15.1014H269.423L268.726 19.936H269.867C270.277 16.9773 270.387 16.471 270.928 16.471C270.962 16.471 270.962 16.471 271.016 16.482C271.118 15.9023 271.261 15.4758 271.449 15.0816L271.404 15.0619Z" fill="white"/>
<path d="M286.321 19.8943H285.237L285.293 19.4236C284.983 19.7956 284.651 19.9599 284.231 19.9599C283.401 19.9599 282.846 19.1606 282.846 17.9529C282.846 16.3432 283.7 14.9823 284.708 14.9823C285.15 14.9823 285.492 15.1908 285.802 15.6521L286.056 13.9531H287.185L286.321 19.8943ZM284.629 18.7554C285.172 18.7554 285.536 18.0848 285.536 17.1212C285.536 16.5083 285.327 16.1781 284.927 16.1781C284.408 16.1781 284.042 16.8495 284.042 17.8028C284.042 18.4379 284.24 18.7554 284.629 18.7554Z" fill="white"/>
<path d="M260.692 19.8728C260.306 20.0054 259.929 20.0702 259.519 20.0702C258.247 20.0702 257.582 19.3254 257.582 17.8997C257.582 16.2434 258.433 15.0176 259.573 15.0176C260.514 15.0176 261.112 15.6968 261.112 16.7829C261.112 17.1344 261.067 17.4835 260.969 17.9779H258.699C258.688 18.0545 258.688 18.0869 258.688 18.1296C258.688 18.6896 259.031 18.9731 259.695 18.9731C260.104 18.9731 260.47 18.8752 260.879 18.6667L260.692 19.8728ZM260.051 16.9906C260.051 16.8911 260.064 16.8034 260.064 16.7481C260.064 16.3532 259.863 16.1234 259.52 16.1234C259.156 16.1234 258.9 16.4314 258.79 16.9906H260.051Z" fill="white"/>
<path d="M274.282 19.8728C273.896 20.0054 273.519 20.0702 273.107 20.0702C271.824 20.0702 271.161 19.3254 271.161 17.8997C271.161 16.2434 272.012 15.0176 273.153 15.0176C274.094 15.0176 274.702 15.6968 274.702 16.7829C274.702 17.1344 274.658 17.4835 274.557 17.9779H272.288C272.276 18.0545 272.276 18.0869 272.276 18.1296C272.276 18.6896 272.621 18.9731 273.284 18.9731C273.694 18.9731 274.06 18.8752 274.468 18.6667L274.282 19.8728ZM273.641 16.9906C273.652 16.8911 273.652 16.8034 273.652 16.7481C273.652 16.3532 273.453 16.1234 273.11 16.1234C272.744 16.1234 272.49 16.4314 272.379 16.9906H273.641Z" fill="white"/>
<path d="M290.217 19.8728C289.82 20.0054 289.443 20.0702 289.043 20.0702C287.77 20.0702 287.097 19.3254 287.097 17.8997C287.097 16.2434 287.948 15.0176 289.1 15.0176C290.04 15.0176 290.639 15.6968 290.639 16.7829C290.639 17.1344 290.593 17.4835 290.493 17.9779H288.226C288.214 18.0545 288.214 18.0869 288.214 18.1296C288.214 18.6896 288.557 18.9731 289.222 18.9731C289.632 18.9731 289.995 18.8752 290.406 18.6667L290.217 19.8728ZM289.576 16.9906C289.576 16.8911 289.587 16.8034 289.587 16.7481C289.587 16.3532 289.387 16.1234 289.045 16.1234C288.677 16.1234 288.425 16.4314 288.314 16.9906H289.576Z" fill="white"/>
<path d="M257.305 15.2798C257.086 15.1274 256.775 15.0066 256.355 15.0066C255.891 15.0066 255.527 15.1053 255.527 15.5863C255.527 16.4409 257.208 16.1234 257.208 17.9653C257.208 19.6422 256.099 20.0821 255.094 20.0821C254.651 20.0821 254.133 19.9383 253.754 19.7646L254.032 18.5356C254.265 18.7441 254.718 18.8847 255.106 18.8847C255.471 18.8847 256.025 18.786 256.025 18.1628C256.025 17.1865 254.342 17.5491 254.342 15.8398C254.342 14.2728 255.326 13.8115 256.279 13.8115C256.81 13.8115 257.32 13.8889 257.608 14.0864L257.305 15.2798Z" fill="white"/>
<path d="M264.035 19.8737C263.803 19.9835 263.482 20.0609 263.018 20.0609C262.021 20.0609 261.402 19.0728 261.402 17.8683C261.402 16.2886 262.297 15.0391 263.614 15.0391C263.902 15.0391 264.345 15.1591 264.688 15.3582L264.434 16.5082C264.189 16.3431 263.936 16.2444 263.671 16.2444C263.062 16.2444 262.618 16.8028 262.618 17.7901C262.618 18.3619 262.941 18.8311 263.439 18.8311C263.736 18.8311 263.948 18.7648 264.2 18.6218L264.035 19.8737Z" fill="white"/>
<path d="M268.306 18.6561C268.252 19.0708 268.197 19.4783 268.163 19.9041H267.066L267.155 19.1284H267.142C266.799 19.6537 266.444 20.0146 265.814 20.0146C265.129 20.0146 264.753 19.2919 264.753 18.3599C264.753 18.0313 264.773 17.8552 264.84 17.3521L265.15 15.1152H266.379L266.047 17.3639C266.015 17.6048 265.969 17.8426 265.969 18.0969C265.969 18.382 266.102 18.6687 266.433 18.645C266.932 18.645 267.229 18.0408 267.319 17.3292L267.664 15.1152H268.847L268.306 18.6561Z" fill="white"/>
<path d="M291.357 19.8505H291.167V19.0503H290.904V18.875H291.622V19.0503H291.357V19.8505Z" fill="white"/>
<path d="M292.584 19.8505H292.409V19.0393L292.242 19.8505H292.064L291.899 19.0393V19.8505H291.721V18.875H291.999L292.153 19.6427H292.164L292.318 18.875H292.584V19.8505Z" fill="white"/>
</svg>
