<svg width="32" height="32" viewBox="0 0 32 32" fill="none" xmlns="http://www.w3.org/2000/svg">
<rect width="32" height="32" rx="5" fill="url(#paint0_radial_595_999)"/>
<path d="M15.26 27C11.7195 27 8.95284 26.0795 6.9601 24.2386C4.9867 22.3775 4 19.6262 4 15.9848C4 12.3637 5.00605 9.63264 7.01814 7.79172C9.04958 5.93057 11.9903 5 15.8404 5H26.8682V8.94483H16.1596C13.6252 8.94483 11.7485 9.50115 10.5296 10.6138C9.33011 11.7264 8.73035 13.5168 8.73035 15.9848C8.73035 18.3315 9.26239 20.0713 10.3265 21.2041C11.3906 22.3168 12.948 22.9237 14.9988 23.0248V14.589H28V27H15.26ZM19.3519 23.0552H23.3567V18.5338H19.3519V23.0552Z" fill="#2D2D2D"/>
<defs>
<radialGradient id="paint0_radial_595_999" cx="0" cy="0" r="1" gradientUnits="userSpaceOnUse" gradientTransform="translate(16 -19) rotate(90) scale(51)">
<stop stop-color="#05F6F9"/>
<stop offset="1" stop-color="#F907FC"/>
</radialGradient>
</defs>
</svg>
