<svg width="200" height="30" viewBox="0 0 200 30" fill="none" xmlns="http://www.w3.org/2000/svg">
<path d="M15.6839 30C10.7524 30 6.89878 28.7448 4.1231 26.2345C1.37437 23.6966 0 19.9448 0 14.9793C0 10.0414 1.40132 6.31724 4.20394 3.8069C7.03352 1.26897 11.1297 0 16.4924 0H31.853V5.37931H16.937C13.4068 5.37931 10.7928 6.13793 9.09507 7.65517C7.42427 9.17241 6.58887 11.6138 6.58887 14.9793C6.58887 18.1793 7.32995 20.5517 8.81211 22.0966C10.2943 23.6138 12.4636 24.4414 15.3201 24.5793V13.0759H33.4294V30H15.6839ZM21.3835 24.6207H26.9618V18.4552H21.3835V24.6207Z" fill="white"/>
<path d="M49.9509 29.7931V19.2414L34.6307 0.206896H42.6344L53.1847 13.6138L63.6946 0.206896H71.6982L56.4589 19.2V29.7931H49.9509Z" fill="white"/>
<path d="M74.5275 29.7931V0.206896H79.9441L93.324 9.8069H93.5261L106.906 0.206896H112.323V29.7931H105.855V8.48276L96.679 14.7724V29.7931H90.2114V14.7724L80.9951 8.48276V29.7931H74.5275Z" fill="white"/>
<path d="M117.99 29.7931V0.206896H148.872V5.58621H124.457V13.7793H145.719V19.1586H124.457V29.7931H117.99Z" fill="white"/>
<path d="M153.32 29.7931V0.206896H159.787V29.7931H153.32Z" fill="white"/>
<path d="M164.428 15.1862V0.206896H200V15.1862H193.452V5.58621H184.639V29.7931H178.172V5.58621H170.977V15.1862H164.428Z" fill="white"/>
</svg>
