<svg width="130" height="20" viewBox="0 0 130 20" fill="none" xmlns="http://www.w3.org/2000/svg">
<path d="M10.868 19.13C7.696 19.13 5.21733 18.3413 3.432 16.764C1.664 15.1693 0.78 12.812 0.78 9.692C0.78 6.58933 1.68133 4.24933 3.484 2.672C5.304 1.07733 7.93867 0.279999 11.388 0.279999H21.268V3.66H11.674C9.40333 3.66 7.722 4.13667 6.63 5.09C5.55533 6.04333 5.018 7.57733 5.018 9.692C5.018 11.7027 5.49467 13.1933 6.448 14.164C7.40133 15.1173 8.79667 15.6373 10.634 15.724V8.496H22.282V19.13H10.868ZM14.534 15.75H18.122V11.876H14.534V15.75ZM32.9087 19V12.37L23.0547 0.409999H28.2027L34.9887 8.834L41.7487 0.409999H46.8967L37.0947 12.344V19H32.9087ZM48.7165 19V0.409999H52.2005L60.8065 6.442H60.9365L69.5425 0.409999H73.0265V19H68.8665V5.61L62.9645 9.562V19H58.8045V9.562L52.8765 5.61V19H48.7165Z" fill="#2D2D2D"/>
<path d="M76.6716 19V0.409999H96.5356V3.79H80.8316V8.938H94.5076V12.318H80.8316V19H76.6716ZM99.3962 19V0.409999H103.556V19H99.3962ZM106.541 9.822V0.409999H129.421V9.822H125.209V3.79H119.541V19H115.381V3.79H110.753V9.822H106.541Z" fill="#E21DFB"/>
</svg>
